<svg width="34" height="30" viewBox="0 0 34 30" fill="none" xmlns="http://www.w3.org/2000/svg">
<g clip-path="url(#clip0_338_23)">
<path d="M16.5682 6.05859C10.2636 6.05859 4.54619 9.19453 0.327346 14.2881C-0.0169115 14.7054 -0.0169115 15.2884 0.327346 15.7057C4.54619 20.8054 10.2636 23.9414 16.5682 23.9414C22.8728 23.9414 28.5902 20.8054 32.809 15.7119C33.1533 15.2946 33.1533 14.7116 32.809 14.2942C28.5902 9.19453 22.8728 6.05859 16.5682 6.05859ZM17.0205 21.2964C12.8354 21.5357 9.37929 18.3998 9.64254 14.5888C9.85855 11.4467 12.6599 8.89996 16.1159 8.70358C20.301 8.46424 23.7571 11.6002 23.4938 15.4112C23.2711 18.5471 20.4698 21.0939 17.0205 21.2964ZM16.8112 18.3875C14.5566 18.5164 12.6936 16.8288 12.8421 14.7791C12.9569 13.0853 14.4689 11.7168 16.3319 11.6063C18.5865 11.4774 20.4495 13.1651 20.301 15.2148C20.1795 16.9147 18.6675 18.2832 16.8112 18.3875Z" fill="white" fill-opacity="0.75"/>
</g>
<defs>
<clipPath id="clip0_338_23">
<rect width="32.9981" height="30" fill="white" transform="translate(0.0691528)"/>
</clipPath>
</defs>
</svg>
