<svg width="371" height="371" viewBox="0 0 371 371" fill="none" xmlns="http://www.w3.org/2000/svg">
<g clip-path="url(#clip0_914_343)">
<path d="M86.0518 287.709C99.7682 285.407 113.643 284.166 127.549 283.999V243.428H81.1826C81.5113 258.301 83.1399 273.119 86.0518 287.709Z" fill="#25B6D2"/>
<path d="M81.1826 231.836H127.549V191.266C113.656 191.037 99.8025 189.739 86.109 187.382C83.1659 202.026 81.5175 216.902 81.1826 231.836Z" fill="#25B6D2"/>
<path d="M139.141 295.591V358.765C155.543 354.302 169.8 331.292 178.088 299.299C165.218 297.083 152.198 295.844 139.141 295.591Z" fill="#25B6D2"/>
<path d="M179.712 54.4265L135.201 69.264C134.015 69.6571 132.735 69.6571 131.549 69.264L86.9785 54.4265V112.674C116.893 101.576 149.797 101.576 179.711 112.674V54.4265H179.712Z" fill="#CFDCE5"/>
<path d="M88.7178 175.906C101.55 178.117 114.53 179.357 127.55 179.616V116.789C111.264 121.195 96.9482 144.03 88.7178 175.906Z" fill="#25B6D2"/>
<path d="M127.549 358.476V295.592C114.492 295.845 101.471 297.084 88.6016 299.301C96.8892 331.062 111.146 354.07 127.549 358.476Z" fill="#25B6D2"/>
<path d="M39.2793 314.775C55.6882 334.72 78.0156 348.93 103.033 355.346C90.2895 339.638 81.4143 321.155 77.1264 301.388C63.9883 304.209 51.2693 308.709 39.2793 314.775Z" fill="#25B6D2"/>
<path d="M192.173 289.795C206.866 293.01 221.044 298.237 234.309 305.328C246.665 286.956 253.742 265.546 254.767 243.429H197.099C196.814 258.998 195.166 274.513 192.173 289.795Z" fill="#25B6D2"/>
<path d="M192.114 184.948C195.159 200.399 196.827 216.09 197.099 231.836H255.057C254.064 209.542 246.922 187.96 234.424 169.473C221.1 176.554 206.862 181.761 192.114 184.948Z" fill="#25B6D2"/>
<path d="M163.715 355.345C188.732 348.928 211.06 334.72 227.469 314.774C215.461 308.703 202.722 304.204 189.565 301.385C185.293 321.149 176.439 339.632 163.715 355.345Z" fill="#25B6D2"/>
<path d="M330.403 249.223C314.399 249.223 301.424 262.198 301.424 278.202V312.977C301.424 328.982 314.399 341.956 330.403 341.956C346.407 341.956 359.382 328.982 359.382 312.977V278.202C359.381 262.198 346.407 249.223 330.403 249.223ZM336.199 283.998H324.607V266.611H336.199V283.998Z" fill="#25B6D2"/>
<path d="M180.581 187.209C166.893 189.624 153.038 190.98 139.141 191.266V231.837H185.507C185.183 216.844 183.534 201.91 180.581 187.209Z" fill="#25B6D2"/>
<path d="M220.281 92.7377C223.482 92.7377 226.077 90.1428 226.077 86.9418C226.077 83.7409 223.482 81.146 220.281 81.146C217.08 81.146 214.485 83.7409 214.485 86.9418C214.485 90.1428 217.08 92.7377 220.281 92.7377Z" fill="#9CE7F7"/>
<path d="M69.5912 243.427H11.6328C12.627 265.604 19.7052 287.079 32.0924 305.501C45.3564 298.41 59.5356 293.183 74.2285 289.969C71.3227 274.622 69.7711 259.047 69.5912 243.427Z" fill="#25B6D2"/>
<path d="M139.141 116.789V179.673C152.159 179.414 165.14 178.174 177.973 175.963C169.742 144.03 155.427 121.195 139.141 116.789Z" fill="#25B6D2"/>
<path d="M139.141 283.998C153.053 284.223 166.926 285.522 180.638 287.881C183.559 273.235 185.189 258.359 185.506 243.428H139.14V283.998H139.141Z" fill="#25B6D2"/>
<path d="M74.5757 184.948C59.9109 181.759 45.7525 176.572 32.4979 169.531C20.0306 188.007 12.9098 209.568 11.9229 231.835H69.8812C70.0559 216.098 71.6273 200.408 74.5757 184.948Z" fill="#25B6D2"/>
<path d="M102.976 119.92C77.959 126.336 55.6306 140.545 39.2217 160.491C51.1586 166.538 63.8184 171.037 76.8941 173.879C81.2215 154.091 90.1581 135.603 102.976 119.92Z" fill="#25B6D2"/>
<path d="M201.967 34.7801L133.345 11.887L64.7227 34.7801L133.345 57.6733L201.967 34.7801Z" fill="#CFDCE5"/>
<path d="M189.507 173.588C202.582 170.747 215.242 166.248 227.179 160.199C210.77 140.254 188.443 126.045 163.425 119.628C176.244 135.313 185.179 153.8 189.507 173.588Z" fill="#25B6D2"/>
<path d="M336.198 238.095V107.227C336.198 92.8228 324.521 81.1459 310.118 81.1459C295.714 81.1459 284.037 92.8228 284.037 107.227V168.082C284.037 177.686 276.253 185.47 266.649 185.47H255.985C243.292 155.802 220.327 131.706 191.305 117.602V50.5433L214.488 42.8349V70.6545C205.435 73.8556 200.689 83.7895 203.89 92.8436C207.092 101.898 217.025 106.642 226.08 103.441C235.134 100.24 239.878 90.3061 236.677 81.252C234.927 76.3006 231.031 72.4059 226.08 70.6545V34.7802C226.086 32.2884 224.499 30.0712 222.138 29.2746L135.199 0.294347C134.014 -0.0987668 132.734 -0.0987668 131.548 0.294347L44.6116 29.2735C41.5707 30.2729 39.916 33.5479 40.9144 36.5888C41.4895 38.338 42.8613 39.7108 44.6116 40.2859L75.445 50.5433V117.6C9.13562 149.588 -18.6881 229.272 13.2976 295.583C45.2845 361.893 124.969 389.718 191.279 357.731C251.117 328.865 280.567 260.344 260.33 197.063H266.648C282.653 197.063 295.627 184.088 295.627 168.083V107.228C295.627 99.225 302.115 92.7386 310.117 92.7386C318.118 92.7386 324.606 99.226 324.606 107.228V238.097C304.663 240.976 289.855 258.055 289.831 278.204V312.979C289.831 335.386 307.995 353.55 330.401 353.55C352.808 353.55 370.972 335.386 370.972 312.979V278.204C370.949 258.053 356.141 240.975 336.198 238.095ZM139.141 191.266C153.034 191.037 166.888 189.739 180.581 187.382C183.525 202.026 185.174 216.902 185.508 231.837H139.141V191.266ZM139.141 179.674V116.789C155.427 121.252 169.743 144.088 177.973 175.906C165.142 178.137 152.162 179.396 139.141 179.674ZM127.549 116.848V179.674C114.531 179.415 101.55 178.175 88.7173 175.964C96.9478 144.088 111.263 121.194 127.549 116.789V116.848ZM127.549 191.266V231.837H81.1826C81.4686 216.848 83.0785 201.914 85.9936 187.209C99.7204 189.63 113.614 190.986 127.549 191.266ZM69.591 231.837H11.6326C12.6258 209.543 19.7674 187.961 32.2659 169.474C45.5205 176.515 59.6778 181.702 74.3437 184.891C71.3725 200.367 69.7823 216.078 69.591 231.837ZM69.591 243.427C69.8562 258.995 71.4858 274.51 74.4591 289.794C59.7662 293.009 45.5881 298.236 32.3231 305.327C19.9868 286.949 12.9305 265.539 11.9217 243.428H69.8801H69.591V243.427ZM81.1826 243.427H127.549V283.998C113.637 284.223 99.764 285.522 86.0518 287.881C83.1305 273.235 81.5009 258.359 81.1826 243.427ZM127.549 295.591V358.765C111.147 354.302 96.8895 331.292 88.6019 299.299C101.472 297.083 114.492 295.843 127.549 295.591ZM139.141 358.765V295.591C152.198 295.843 165.219 297.083 178.088 299.3C169.801 331.061 155.543 354.071 139.141 358.475V358.765ZM139.141 283.998V243.427H185.508C185.237 258.296 183.666 273.112 180.813 287.707C167.039 285.397 153.107 284.158 139.141 283.998ZM197.099 243.427H255.058C254.063 265.604 246.985 287.078 234.598 305.501C221.334 298.41 207.155 293.183 192.462 289.969C195.368 274.622 196.919 259.047 197.099 243.427ZM197.099 231.837C196.848 216.092 195.199 200.401 192.173 184.949C206.838 181.76 220.996 176.573 234.251 169.532C246.698 188.014 253.798 209.576 254.768 231.837H197.099ZM227.237 160.201C215.3 166.249 202.64 170.748 189.565 173.59C185.28 153.93 176.446 135.55 163.773 119.921C188.627 126.326 210.82 140.425 227.179 160.201H227.237ZM220.282 92.7365C217.081 92.7365 214.486 90.1417 214.486 86.9407C214.486 83.7396 217.081 81.1448 220.282 81.1448C223.483 81.1448 226.077 83.7396 226.077 86.9407C226.077 90.1417 223.483 92.7365 220.282 92.7365ZM133.345 11.8871L201.968 34.7802L133.345 57.6734L64.7228 34.7802L133.345 11.8871ZM86.9785 54.3684L131.49 69.2058C132.675 69.5989 133.956 69.5989 135.141 69.2058L179.653 54.3684V112.616C149.738 101.518 116.834 101.518 86.9202 112.616V54.4266L86.9785 54.3684ZM102.976 119.861C90.3023 135.489 81.4686 153.871 77.1839 173.531C64.1082 170.69 51.4484 166.191 39.5115 160.142C55.8944 140.377 78.1085 126.298 102.976 119.92C102.976 119.921 102.976 119.861 102.976 119.861ZM39.2213 314.775C51.229 308.704 63.9688 304.205 77.1257 301.387C81.4052 321.174 90.2804 339.679 103.033 355.403C78.0076 348.971 55.6791 334.741 39.2796 314.775H39.2213ZM163.599 355.345C176.365 339.643 185.259 321.16 189.565 301.387C202.685 304.232 215.384 308.752 227.354 314.833C210.967 334.736 188.684 348.922 163.716 355.345H163.599ZM359.381 312.978C359.381 328.983 346.406 341.957 330.401 341.957C314.397 341.957 301.422 328.983 301.422 312.978V278.203C301.422 262.199 314.397 249.224 330.401 249.224C346.406 249.224 359.381 262.199 359.381 278.203V312.978Z" fill="#414A52"/>
<path d="M336.198 266.612H324.606V283.999H336.198V266.612Z" fill="#414A52"/>
<path d="M237.669 347.753H226.077V359.345H237.669V347.753Z" fill="#414A52"/>
<path d="M260.852 347.753H249.261V359.345H260.852V347.753Z" fill="#414A52"/>
<path d="M284.036 347.753H272.444V359.345H284.036V347.753Z" fill="#414A52"/>
</g>
<defs>
<clipPath id="clip0_914_343">
<rect width="371" height="371" fill="white"/>
</clipPath>
</defs>
</svg>
