<svg width="200" height="371" viewBox="0 0 200 371" fill="none" xmlns="http://www.w3.org/2000/svg">
<g clip-path="url(#clip0_914_188)">
<path d="M10.8111 0H189.189C195.098 0 199.892 4.98531 199.892 11.13V359.87C199.892 366.015 195.098 371 189.189 371H10.8111C4.90232 371 0.108398 366.015 0.108398 359.87V11.13C0.108398 4.98531 4.90232 0 10.8111 0Z" fill="#415E72"/>
<path d="M189.189 29.6799H10.8105V326.48H189.189V29.6799Z" fill="#CFDCE5"/>
<path d="M78.4103 11.1299H121.221C123.189 11.1299 124.789 12.7936 124.789 14.8399C124.789 16.8862 123.189 18.5499 121.221 18.5499H78.4103C76.4426 18.5499 74.8428 16.8862 74.8428 14.8399C74.8428 12.7936 76.4426 11.1299 78.4103 11.1299Z" fill="#CFDCE5"/>
<path d="M78.5939 341.32H121.405C123.372 341.32 124.972 342.984 124.972 345.03C124.972 347.076 123.372 348.74 121.405 348.74H78.5939C76.6262 348.74 75.0264 347.076 75.0264 345.03C75.0264 342.984 76.6262 341.32 78.5939 341.32Z" fill="#CFDCE5"/>
<path d="M174.918 114.993H25.0801V152.093H174.918V114.993Z" fill="#1190B7"/>
<path d="M174.918 40.8098H25.0801V77.9098H174.918V40.8098Z" fill="#25B6D2"/>
<path d="M60.7558 40.8098H25.0801V77.9098H60.7558V40.8098Z" fill="#1190B7"/>
<path d="M174.919 114.993H139.243V152.093H174.919V114.993Z" fill="#25B6D2"/>
<path d="M174.918 85.3125H132.107V92.7325H174.918V85.3125Z" fill="white"/>
<path d="M67.8909 159.512H25.0801V166.932H67.8909V159.512Z" fill="white"/>
<path d="M174.918 189.192H25.0801V226.292H174.918V189.192Z" fill="#25B6D2"/>
<path d="M174.918 233.73H132.107V241.15H174.918V233.73Z" fill="white"/>
<path d="M174.918 263.41H25.0801V300.51H174.918V263.41Z" fill="#1190B7"/>
<path d="M67.8909 307.93H25.0801V315.35H67.8909V307.93Z" fill="white"/>
<path d="M60.7558 189.192H25.0801V226.292H60.7558V189.192Z" fill="#1190B7"/>
<path d="M174.919 263.41H139.243V300.51H174.919V263.41Z" fill="#25B6D2"/>
</g>
<defs>
<clipPath id="clip0_914_188">
<rect width="200" height="371" fill="white"/>
</clipPath>
</defs>
</svg>
