<svg width="200" height="200" viewBox="0 0 200 200" fill="none" xmlns="http://www.w3.org/2000/svg">
<g clip-path="url(#clip0_639_682)">
<path d="M200 0.638184H48.8989V189.452H200V0.638184Z" fill="#E0E0D3"/>
<path d="M177.38 31.3264H71.5199C69.657 31.3264 68.1465 29.8167 68.1465 27.953C68.1465 26.0893 69.6566 24.5796 71.5199 24.5796H177.38C179.243 24.5796 180.753 26.0893 180.753 27.953C180.753 29.8167 179.243 31.3264 177.38 31.3264Z" fill="#5C6670"/>
<path d="M177.38 46.8472H137.725C135.862 46.8472 134.352 45.3374 134.352 43.4738C134.352 41.6101 135.861 40.1003 137.725 40.1003H177.38C179.243 40.1003 180.753 41.6101 180.753 43.4738C180.753 45.3374 179.243 46.8472 177.38 46.8472Z" fill="#5C6670"/>
<path d="M127.547 46.8472H71.5199C69.657 46.8472 68.1465 45.3374 68.1465 43.4738C68.1465 41.6101 69.6566 40.1003 71.5199 40.1003H127.547C129.41 40.1003 130.92 41.6101 130.92 43.4738C130.92 45.3374 129.41 46.8472 127.547 46.8472Z" fill="#5C6670"/>
<path d="M177.38 62.3694H71.5199C69.657 62.3694 68.1465 60.8596 68.1465 58.996C68.1465 57.1323 69.6566 55.6226 71.5199 55.6226H177.38C179.243 55.6226 180.753 57.1323 180.753 58.996C180.753 60.8596 179.243 62.3694 177.38 62.3694Z" fill="#5C6670"/>
<path d="M177.38 77.8899H153.214C151.35 77.8899 149.84 76.3802 149.84 74.5165C149.84 72.6528 151.35 71.1431 153.214 71.1431H177.38C179.243 71.1431 180.753 72.6528 180.753 74.5165C180.753 76.3798 179.243 77.8899 177.38 77.8899Z" fill="#5C6670"/>
<path d="M143.036 77.8899H71.5199C69.657 77.8899 68.1465 76.3802 68.1465 74.5165C68.1465 72.6528 69.6566 71.1431 71.5199 71.1431H143.036C144.899 71.1431 146.409 72.6528 146.409 74.5165C146.409 76.3798 144.899 77.8899 143.036 77.8899Z" fill="#5C6670"/>
<path d="M177.38 93.4121H118.254C116.391 93.4121 114.88 91.9024 114.88 90.0387C114.88 88.1754 116.39 86.6653 118.254 86.6653H177.38C179.243 86.6653 180.753 88.175 180.753 90.0387C180.754 91.902 179.243 93.4121 177.38 93.4121Z" fill="#5C6670"/>
<path d="M108.518 93.4121H71.5194C69.6565 93.4121 68.146 91.9024 68.146 90.0387C68.146 88.1754 69.6561 86.6653 71.5194 86.6653H108.518C110.381 86.6653 111.891 88.175 111.891 90.0387C111.891 91.902 110.381 93.4121 108.518 93.4121Z" fill="#5C6670"/>
<path d="M157.553 108.932H71.5199C69.657 108.932 68.1465 107.423 68.1465 105.559C68.1465 103.696 69.6566 102.186 71.5199 102.186H157.553C159.416 102.186 160.927 103.695 160.927 105.559C160.927 107.423 159.416 108.932 157.553 108.932Z" fill="#5C6670"/>
<path d="M177.38 124.453H113.803C111.94 124.453 110.43 122.944 110.43 121.08C110.43 119.216 111.94 117.707 113.803 117.707H177.38C179.243 117.707 180.753 119.216 180.753 121.08C180.753 122.944 179.243 124.453 177.38 124.453Z" fill="#5C6670"/>
<path d="M101.413 124.453H71.5199C69.657 124.453 68.1465 122.944 68.1465 121.08C68.1465 119.216 69.6566 117.707 71.5199 117.707H101.413C103.276 117.707 104.786 119.216 104.786 121.08C104.786 122.944 103.276 124.453 101.413 124.453Z" fill="#5C6670"/>
<path d="M177.38 139.974H143.036C141.173 139.974 139.663 138.464 139.663 136.601C139.663 134.737 141.172 133.227 143.036 133.227H177.38C179.243 133.227 180.753 134.737 180.753 136.601C180.753 138.464 179.243 139.974 177.38 139.974Z" fill="#5C6670"/>
<path d="M130.915 139.974H71.5199C69.657 139.974 68.1465 138.464 68.1465 136.601C68.1465 134.737 69.6566 133.227 71.5199 133.227H130.915C132.779 133.227 134.289 134.737 134.289 136.601C134.289 138.464 132.779 139.974 130.915 139.974Z" fill="#5C6670"/>
<path d="M177.38 155.495H71.5199C69.657 155.495 68.1465 153.986 68.1465 152.122C68.1465 150.259 69.6566 148.749 71.5199 148.749H177.38C179.243 148.749 180.753 150.258 180.753 152.122C180.753 153.985 179.243 155.495 177.38 155.495Z" fill="#5C6670"/>
<path d="M137.725 171.016H71.5199C69.657 171.016 68.1465 169.506 68.1465 167.643C68.1465 165.779 69.6566 164.269 71.5199 164.269H137.725C139.588 164.269 141.099 165.779 141.099 167.643C141.098 169.506 139.588 171.016 137.725 171.016Z" fill="#5C6670"/>
<path opacity="0.2" d="M163.492 0.638184H48.8989V189.452H163.492V0.638184Z" fill="black"/>
<path d="M151.101 10.5471H0V199.361H151.101V10.5471Z" fill="#E0E0D3"/>
<path d="M128.482 41.2354H22.6215C20.7586 41.2354 19.248 39.7252 19.248 37.862C19.248 35.9987 20.7582 34.4885 22.6215 34.4885H128.482C130.345 34.4885 131.855 35.9983 131.855 37.862C131.855 39.7248 130.345 41.2354 128.482 41.2354Z" fill="#333E48"/>
<path d="M128.482 72.2779H22.6215C20.7586 72.2779 19.248 70.7681 19.248 68.9044C19.248 67.0412 20.7582 65.531 22.6215 65.531H128.482C130.345 65.531 131.855 67.0408 131.855 68.9044C131.855 70.7677 130.345 72.2779 128.482 72.2779Z" fill="#5C6670"/>
<path d="M128.482 87.7989H104.315C102.452 87.7989 100.942 86.2891 100.942 84.4254C100.942 82.5618 102.452 81.052 104.315 81.052H128.482C130.345 81.052 131.855 82.5618 131.855 84.4254C131.855 86.2891 130.345 87.7989 128.482 87.7989Z" fill="#5C6670"/>
<path d="M94.1372 87.7989H22.6215C20.7586 87.7989 19.248 86.2891 19.248 84.4254C19.248 82.5618 20.7582 81.052 22.6215 81.052H94.1376C96.0005 81.052 97.511 82.5618 97.511 84.4254C97.511 86.2891 96.0005 87.7989 94.1372 87.7989Z" fill="#5C6670"/>
<path d="M128.482 103.321H69.3554C67.4925 103.321 65.9819 101.811 65.9819 99.9472C65.9819 98.0839 67.4921 96.5737 69.3554 96.5737H128.481C130.345 96.5737 131.855 98.0835 131.855 99.9472C131.855 101.81 130.345 103.321 128.482 103.321Z" fill="#5C6670"/>
<path d="M59.6198 103.321H22.6215C20.7586 103.321 19.248 101.811 19.248 99.9472C19.248 98.0839 20.7582 96.5737 22.6215 96.5737H59.6198C61.4826 96.5737 62.9932 98.0835 62.9932 99.9472C62.9928 101.81 61.4826 103.321 59.6198 103.321Z" fill="#5C6670"/>
<path d="M128.482 134.362H64.9057C63.0428 134.362 61.5322 132.852 61.5322 130.989C61.5322 129.126 63.0424 127.615 64.9057 127.615H128.482C130.345 127.615 131.855 129.125 131.855 130.989C131.855 132.852 130.345 134.362 128.482 134.362Z" fill="#5C6670"/>
<path d="M52.5147 134.362H22.6215C20.7586 134.362 19.248 132.852 19.248 130.989C19.248 129.126 20.7582 127.615 22.6215 127.615H52.5147C54.3776 127.615 55.8881 129.125 55.8881 130.989C55.8877 132.852 54.3776 134.362 52.5147 134.362Z" fill="#5C6670"/>
<path d="M128.482 149.883H94.1376C92.2747 149.883 90.7642 148.373 90.7642 146.509C90.7642 144.646 92.2743 143.136 94.1376 143.136H128.482C130.345 143.136 131.855 144.646 131.855 146.509C131.855 148.373 130.345 149.883 128.482 149.883Z" fill="#5C6670"/>
<path d="M82.0173 149.883H22.6215C20.7586 149.883 19.248 148.373 19.248 146.509C19.248 144.646 20.7582 143.136 22.6215 143.136H82.0173C83.8802 143.136 85.3908 144.646 85.3908 146.509C85.3908 148.373 83.8802 149.883 82.0173 149.883Z" fill="#5C6670"/>
<path d="M128.482 165.404H22.6215C20.7586 165.404 19.248 163.894 19.248 162.031C19.248 160.167 20.7582 158.657 22.6215 158.657H128.482C130.345 158.657 131.855 160.167 131.855 162.031C131.855 163.894 130.345 165.404 128.482 165.404Z" fill="#5C6670"/>
<path d="M88.8271 180.925H22.6215C20.7586 180.925 19.248 179.415 19.248 177.551C19.248 175.688 20.7582 174.178 22.6215 174.178H88.8271C90.6899 174.178 92.2005 175.687 92.2005 177.551C92.2001 179.414 90.6899 180.925 88.8271 180.925Z" fill="#5C6670"/>
</g>
<defs>
<clipPath id="clip0_639_682">
<rect width="200" height="200" fill="white"/>
</clipPath>
</defs>
</svg>
