<svg width="200" height="200" viewBox="0 0 200 200" fill="none" xmlns="http://www.w3.org/2000/svg">
<path d="M167.624 148.49H157.955H145.144H84.4207C84.4035 148.49 84.391 148.503 84.391 148.516C84.3824 156.656 79.5754 163.669 72.6441 166.883C70.1703 168.033 67.4285 168.693 64.5375 168.752C64.4012 168.757 64.2648 168.757 64.1289 168.757H147.383C147.83 168.757 148.273 168.744 148.712 168.714C159.28 168.028 167.637 159.249 167.654 148.516C167.654 148.503 167.641 148.49 167.624 148.49Z" fill="#838383"/>
<path d="M72.6436 166.883C70.1698 168.033 67.428 168.693 64.537 168.752C64.4007 168.757 64.2644 168.757 64.1284 168.757C64.073 168.757 64.0179 168.757 63.9624 168.752" fill="#57EECF"/>
<path d="M100.587 183.331L43.1594 193.46C40.3195 193.958 37.6117 192.063 37.1133 189.224L9.745 34.0524C9.24695 31.2168 11.1415 28.509 13.9813 28.0063L43.8574 22.7395V136.705V148.115C43.8574 155.281 47.5105 161.676 53.0539 165.384L52.5473 168.254C51.9215 171.792 54.2844 175.164 57.8226 175.79L100.587 183.331Z" fill="#FBFBFB"/>
<path d="M152.748 3.19604H48.7286C46.0376 3.19604 43.8579 5.37612 43.8579 8.07104V25.1827V139.148V150.559C43.8579 157.724 47.511 164.119 53.0544 167.828C56.1923 169.927 59.9348 171.166 63.9626 171.196L72.6438 169.327C79.5754 166.112 84.382 159.1 84.3906 150.959C84.3906 150.946 84.4035 150.934 84.4203 150.934H145.143H157.955V25.2937V8.40346C157.955 5.52924 155.626 3.19604 152.748 3.19604Z" fill="#7E7E7E"/>
<path d="M185.928 27.7851L157.955 22.8503V148.49H167.624C167.641 148.49 167.654 148.503 167.654 148.515C167.637 159.249 159.279 168.028 148.711 168.714C148.273 168.743 147.83 168.756 147.383 168.756H64.1286H63.9497L63.9625 168.752C59.9348 168.722 56.1922 167.483 53.0544 165.384L52.5477 168.254C51.9219 171.792 54.2848 175.164 57.8231 175.79L100.587 183.33L156.75 193.234C160.288 193.86 163.664 191.497 164.286 187.959L191.207 35.321C191.829 31.7831 189.466 28.407 185.928 27.7851Z" fill="#7C7C7C"/>
<path d="M157.356 150.851L145.013 153.512L144.545 150.851H157.356Z" fill="#60FEE6"/>
<path d="M63.3638 171.113L72.045 169.244C69.5712 170.394 66.8294 171.054 63.9384 171.113C63.802 171.118 63.6657 171.118 63.5298 171.118C63.4747 171.118 63.4192 171.118 63.3638 171.113Z" fill="#57EECF"/>
<path d="M63.53 171.118H63.3511L63.364 171.113C63.4194 171.118 63.4749 171.118 63.53 171.118Z" fill="white"/>
<path d="M192.302 28.2093L160.562 22.6117V3.19335C160.562 1.42929 159.132 0 157.368 0H43.267C41.5033 0 40.0736 1.42929 40.0736 3.19335V22.4992L7.6971 28.2093C5.96039 28.5156 4.80062 30.1718 5.10726 31.9085L34.2857 197.361C34.433 198.195 34.9053 198.936 35.5986 199.422C36.1392 199.801 36.7791 200 37.4303 200C37.615 200 37.8006 199.984 37.9849 199.951L99.9993 189.014L162.015 199.951C162.202 199.984 162.389 200 162.573 200C164.094 200 165.441 198.91 165.714 197.361L194.893 31.9085C195.198 30.1714 194.039 28.5152 192.302 28.2093ZM163.571 154.124C162.071 162.018 155.119 168.005 146.795 168.005H79.6095C83.4235 164.413 86.0372 159.563 86.7805 154.124H163.571ZM46.4603 6.38671H116.474L119.959 9.8242C120.53 10.3875 120.793 11.1855 120.668 11.9715L119.48 19.3953C119.159 21.4035 121.284 22.9246 123.125 22.0031L129.927 18.5968C130.647 18.2363 131.499 18.2363 132.22 18.5968L139.022 22.0031C140.862 22.9246 142.987 21.4035 142.666 19.3953L141.479 11.9715C141.353 11.1855 141.616 10.3871 142.187 9.8242L145.672 6.38671H154.175V24.9964C154.157 25.1914 154.157 25.3839 154.175 25.5734V147.737H83.8044C82.0407 147.737 80.611 149.167 80.611 150.931C80.611 160.345 72.9509 168.006 63.5361 168.006C54.1212 168.006 46.4611 160.345 46.4611 150.931V6.38671H46.4603ZM40.0201 193.107L11.951 33.9441L40.0736 28.9843V150.931C40.0736 158.364 43.5521 164.995 48.9619 169.297L47.6834 176.546C47.5365 177.38 47.7267 178.238 48.2123 178.932C48.6982 179.625 49.4396 180.098 50.2736 180.245L81.6126 185.772L40.0201 193.107ZM159.979 193.107L54.5279 174.51L54.8443 172.716C57.4533 173.761 60.2896 174.355 63.2591 174.39C63.2931 174.391 63.3271 174.391 63.3614 174.391H146.795C153.999 174.391 160.453 171.125 164.76 165.998L159.979 193.107ZM167.957 147.867C167.673 147.784 167.374 147.737 167.063 147.737H160.561V29.096L188.048 33.9433L167.957 147.867Z" fill="#5C6670"/>
<path d="M72.7841 32.54C75.5281 32.54 77.5534 33.1 78.8601 34.22C80.1854 35.34 80.8481 36.8333 80.8481 38.7C80.8481 39.9133 80.5308 41.0333 79.8961 42.06C79.2801 43.068 78.3281 43.88 77.0401 44.496C75.7708 45.0933 74.1934 45.392 72.3081 45.392C70.9268 45.392 69.5548 45.224 68.1921 44.888C66.8481 44.552 65.6908 44.076 64.7201 43.46L66.7081 39.288C67.4921 39.8107 68.3508 40.212 69.2841 40.492C70.2361 40.772 71.1881 40.912 72.1401 40.912C73.0921 40.912 73.8481 40.7347 74.4081 40.38C74.9868 40.0067 75.2761 39.4933 75.2761 38.84C75.2761 38.1867 74.9961 37.692 74.4361 37.356C73.8761 37.02 72.8868 36.852 71.4681 36.852H66.1481L67.1281 25.4H79.6161V29.684H71.7201L71.4681 32.54H72.7841Z" fill="#E5E5E5"/>
<path d="M60.6816 68.7522H140.039C141.803 68.7522 143.233 67.3229 143.233 65.5588C143.233 63.7948 141.803 62.3655 140.039 62.3655H60.6816C58.918 62.3655 57.4883 63.7948 57.4883 65.5588C57.4883 67.3229 58.918 68.7522 60.6816 68.7522Z" fill="#272727"/>
<path d="M60.6816 81.0054H140.039C141.803 81.0054 143.233 79.5761 143.233 77.812C143.233 76.0479 141.803 74.6187 140.039 74.6187H60.6816C58.918 74.6187 57.4883 76.0479 57.4883 77.812C57.4883 79.5761 58.918 81.0054 60.6816 81.0054Z" fill="#272727"/>
<path d="M60.6816 93.2588H140.039C141.803 93.2588 143.233 91.8295 143.233 90.0654C143.233 88.3014 141.803 86.8721 140.039 86.8721H60.6816C58.918 86.8721 57.4883 88.3014 57.4883 90.0654C57.4883 91.8295 58.918 93.2588 60.6816 93.2588Z" fill="#272727"/>
<path d="M60.6816 105.512H92.0589C93.8226 105.512 95.2523 104.083 95.2523 102.319C95.2523 100.555 93.8226 99.1252 92.0589 99.1252H60.6816C58.918 99.1252 57.4883 100.555 57.4883 102.319C57.4883 104.083 58.918 105.512 60.6816 105.512Z" fill="#272727"/>
<path d="M84.5048 29.755H86.8833V32.1335C86.8833 32.4182 87.1145 32.6495 87.3993 32.6495H88.861C89.1458 32.6495 89.377 32.4186 89.377 32.1335V29.755H91.7556C92.0403 29.755 92.2716 29.5237 92.2716 29.239V27.7772C92.2716 27.4925 92.0403 27.2612 91.7556 27.2612H89.377V24.8827C89.377 24.5979 89.1458 24.3667 88.861 24.3667H87.3993C87.1145 24.3667 86.8833 24.5976 86.8833 24.8827V27.2612H84.5048C84.22 27.2612 83.9888 27.4925 83.9888 27.7772V29.239C83.9892 29.5245 84.2196 29.755 84.5048 29.755Z" fill="#E5E5E5"/>
<path d="M64.1286 168.757H63.9497L63.9626 168.752C64.0177 168.757 64.0731 168.757 64.1286 168.757Z" fill="white"/>
</svg>
