<svg width="41" height="94" viewBox="0 0 41 94" fill="none" xmlns="http://www.w3.org/2000/svg">
<path d="M23.4253 93.8056C23.1523 93.8063 22.8825 93.7059 22.6352 93.5115C22.3878 93.317 22.169 93.0333 21.9943 92.6806L0.426614 48.9306C0.150871 48.3702 0 47.6657 0 46.9384C0 46.2111 0.150871 45.5066 0.426614 44.9462L21.9943 1.19621C22.1475 0.867876 22.3382 0.594452 22.5552 0.392074C22.7723 0.189696 23.0112 0.0624638 23.258 0.0178832C23.5047 -0.0266973 23.7543 0.0122773 23.992 0.132508C24.2296 0.252738 24.4506 0.451789 24.6417 0.717915C24.8329 0.984042 24.9904 1.31185 25.105 1.68201C25.2196 2.05216 25.289 2.45716 25.309 2.87312C25.329 3.28907 25.2992 3.70754 25.2215 4.10385C25.1437 4.50016 25.0196 4.86627 24.8563 5.18059L4.27367 46.9306L24.8563 88.6806C25.0825 89.1373 25.2266 89.6929 25.2717 90.2824C25.3167 90.8719 25.2608 91.4707 25.1106 92.0087C24.9604 92.5467 24.7221 93.0015 24.4236 93.3198C24.125 93.638 23.7788 93.8066 23.4253 93.8056Z" fill="black" fill-opacity="0.6"/>
<path d="M39.0272 93.8056C38.7542 93.8063 38.4844 93.7059 38.2371 93.5115C37.9898 93.317 37.7709 93.0333 37.5962 92.6806L16.0285 48.9306C15.7528 48.3702 15.6019 47.6657 15.6019 46.9384C15.6019 46.2111 15.7528 45.5066 16.0285 44.9462L37.5962 1.19621C37.7494 0.867876 37.9401 0.594452 38.1572 0.392074C38.3742 0.189696 38.6132 0.0624638 38.8599 0.0178832C39.1067 -0.0266973 39.3562 0.0122773 39.5939 0.132508C39.8316 0.252738 40.0525 0.451789 40.2436 0.717915C40.4348 0.984042 40.5923 1.31185 40.7069 1.68201C40.8215 2.05216 40.8909 2.45716 40.9109 2.87312C40.9309 3.28907 40.9011 3.70754 40.8234 4.10385C40.7457 4.50016 40.6215 4.86627 40.4583 5.18059L19.8663 46.9306L40.4583 88.6806C40.6845 89.1373 40.8286 89.6929 40.8736 90.2824C40.9186 90.8719 40.8628 91.4707 40.7125 92.0087C40.5623 92.5467 40.324 93.0015 40.0255 93.3198C39.727 93.638 39.3807 93.8066 39.0272 93.8056Z" fill="black" fill-opacity="0.6"/>
</svg>
