<svg width="18" height="18" viewBox="0 0 18 18" fill="none" xmlns="http://www.w3.org/2000/svg">
<path d="M9 0C5.27203 0 2.25 3.02203 2.25 6.75C2.25 8.34694 2.95369 9.75122 3.73247 10.9688L8.541 17.7626C8.64647 17.9117 8.81775 18 9 18C9.18225 18 9.35353 17.9117 9.459 17.7626L14.2675 10.9688C15.0117 9.96694 15.75 8.34694 15.75 6.75C15.75 3.02203 12.728 0 9 0ZM9 10.6875C6.82538 10.6875 5.0625 8.92463 5.0625 6.75C5.0625 4.57538 6.82538 2.8125 9 2.8125C11.1746 2.8125 12.9375 4.57538 12.9375 6.75C12.9375 8.92463 11.1746 10.6875 9 10.6875Z" fill="#231F20"/>
<path d="M9 3.375C7.13616 3.375 5.625 4.88616 5.625 6.75C5.625 8.61384 7.13616 10.125 9 10.125C10.8638 10.125 12.375 8.61384 12.375 6.75C12.375 4.88616 10.8638 3.375 9 3.375ZM9 9.5625C7.44666 9.5625 6.1875 8.30306 6.1875 6.75C6.1875 5.19694 7.44666 3.9375 9 3.9375C10.5533 3.9375 11.8125 5.19694 11.8125 6.75C11.8125 8.30306 10.5533 9.5625 9 9.5625Z" fill="#231F20"/>
</svg>
