<svg width="111" height="47" viewBox="0 0 111 47" fill="none" xmlns="http://www.w3.org/2000/svg">
<path d="M35.0192 46.3803H30.6083L26.0339 30.2041H30.5382L33.0587 40.3951L35.976 30.2041H39.2666L42.1839 40.3951L44.7277 30.2041H49.2085L44.6576 46.3803H40.2469L37.633 37.2523L35.0192 46.3803Z" fill="#302C2C"/>
<path d="M64.279 44.3005C62.6143 45.9181 60.5917 46.727 58.2112 46.727C55.7996 46.727 53.7692 45.9181 52.12 44.3005C50.4708 42.6675 49.6461 40.6647 49.6461 38.2923C49.6461 35.9197 50.4708 33.9246 52.12 32.307C53.7692 30.674 55.7996 29.8574 58.2112 29.8574C60.6073 29.8574 62.6298 30.674 64.279 32.307C65.9438 33.9246 66.7762 35.9197 66.7762 38.2923C66.7762 40.6493 65.9438 42.6522 64.279 44.3005ZM55.0606 41.4581C55.9163 42.2747 56.9666 42.6829 58.2112 42.6829C59.4559 42.6829 60.5061 42.2747 61.3619 41.4581C62.202 40.6262 62.6221 39.5709 62.6221 38.2923C62.6221 36.9981 62.202 35.9505 61.3619 35.1495C60.5216 34.3175 59.4715 33.9016 58.2112 33.9016C56.951 33.9016 55.9008 34.3175 55.0606 35.1495C54.2204 35.9505 53.8003 36.9981 53.8003 38.2923C53.8003 39.5709 54.2204 40.6262 55.0606 41.4581Z" fill="#936DFF"/>
<path d="M82.1802 46.3803H77.6994L74.852 41.1577H73.3584V46.3803H69.181V30.2041H75.7156C77.3804 30.2041 78.7729 30.7356 79.8931 31.7986C81.0288 32.8308 81.5968 34.1635 81.5968 35.7964C81.5968 36.7516 81.3478 37.6375 80.8499 38.454C80.3521 39.2705 79.6753 39.9176 78.8195 40.3951L82.1802 46.3803ZM75.669 34.017H73.3584V37.6452H75.669C76.1823 37.6605 76.6025 37.4989 76.9292 37.1598C77.256 36.8209 77.4193 36.3819 77.4193 35.8426C77.4193 35.3034 77.256 34.8644 76.9292 34.5255C76.6025 34.1865 76.1823 34.017 75.669 34.017Z" fill="#302C2C"/>
<path d="M88.2976 30.2041V42.3825H93.922V46.3803H84.1201V30.2041H88.2976Z" fill="#302C2C"/>
<path d="M95.9139 30.2041H102.565C104.806 30.2041 106.689 30.982 108.213 32.538C109.737 34.0941 110.5 36.0122 110.5 38.2923C110.5 40.5877 109.737 42.5134 108.213 44.0694C106.704 45.61 104.821 46.3803 102.565 46.3803H95.9139V30.2041ZM100.208 42.3825H102.565C103.685 42.3825 104.611 42.0127 105.342 41.2733C106.058 40.5184 106.416 39.5247 106.416 38.2923C106.416 37.0443 106.058 36.0583 105.342 35.3343C104.627 34.5793 103.701 34.202 102.565 34.202H100.208V42.3825Z" fill="#302C2C"/>
<path d="M0 27.043V10.3091H4.38612V27.043H0Z" fill="#302C2C"/>
<path d="M7.81812 10.3091H14.8016C17.1539 10.3091 19.1305 11.1138 20.7315 12.7236C22.3324 14.3332 23.1328 16.3173 23.1328 18.6761C23.1328 21.0507 22.3324 23.0429 20.7315 24.6525C19.1469 26.2462 17.1703 27.043 14.8016 27.043H7.81812V10.3091ZM12.3268 22.9073H14.8016C15.9778 22.9073 16.9497 22.5249 17.7175 21.7599C18.469 20.9789 18.8447 19.951 18.8447 18.6761C18.8447 17.3851 18.469 16.3652 17.7175 15.6161C16.9661 14.8352 15.9941 14.4448 14.8016 14.4448H12.3268V22.9073Z" fill="#302C2C"/>
<path d="M30.288 20.5646V23.0269H36.9284V27.043H25.9019V10.3091H36.8059V14.3013H30.288V16.6202H36.1933V20.5646H30.288Z" fill="#302C2C"/>
<path d="M62.9063 27.4013C61.1257 27.4013 59.631 27.0348 58.4221 26.3017C57.2296 25.5686 56.3884 24.5486 55.8983 23.2417L59.6473 21.1142C60.2845 22.5963 61.4115 23.3374 63.0288 23.3374C64.3683 23.3374 65.0381 22.9629 65.0381 22.2138C65.0381 21.7357 64.6542 21.3373 63.8864 21.0185C63.6251 20.9229 62.9063 20.7077 61.7301 20.3731C60.0639 19.9109 58.7979 19.2655 57.932 18.4367C57.0663 17.608 56.6334 16.5083 56.6334 15.1377C56.6334 13.5918 57.197 12.3408 58.3241 11.3845C59.484 10.4283 60.9051 9.9502 62.5877 9.9502C64.0253 9.9502 65.2995 10.2849 66.4103 10.9542C67.5211 11.6077 68.3705 12.5479 68.9586 13.775L65.2831 15.8788C64.7441 14.6356 63.8538 14.0141 62.6122 14.0141C62.1058 14.0141 61.7138 14.1177 61.4361 14.3249C61.1584 14.5161 61.0195 14.7792 61.0195 15.1138C61.0195 15.4803 61.2155 15.7911 61.6076 16.0461C62.016 16.3011 62.8001 16.596 63.96 16.9306C64.8257 17.1856 65.4955 17.4087 65.9692 17.6C66.5083 17.8232 67.0637 18.1259 67.6354 18.5084C68.8279 19.2734 69.4242 20.4926 69.4242 22.166C69.4242 23.8076 68.8279 25.0904 67.6354 26.0148C66.443 26.9392 64.8665 27.4013 62.9063 27.4013Z" fill="#302C2C"/>
<path d="M50.4523 27.0431H55.1814L49.5211 10.3091H44.1794L38.519 27.0431H43.2727L46.8502 15.2575L50.4523 27.0431Z" fill="#302C2C"/>
<path d="M0 8.36698H4.38612V0H0V8.36698Z" fill="#936DFF"/>
<path d="M20.7316 5.97644C22.3325 4.36679 23.1329 2.37464 23.1329 0H18.8448C18.8448 1.27498 18.4691 2.30292 17.7176 3.08385C16.9499 3.84884 15.9779 4.23133 14.8018 4.23133H12.3269V0H7.81824V8.36698H14.8018C17.1704 8.36698 19.147 7.57012 20.7316 5.97644Z" fill="#936DFF"/>
<path d="M4.38612 29.8623H0V38.2294H4.38612V29.8623Z" fill="#936DFF"/>
<path d="M14.8018 29.8623H7.81824V38.2294H12.3269V33.998H14.8018C15.9943 33.998 16.9662 34.3885 17.7176 35.1695C18.4691 35.9185 18.8448 36.9384 18.8448 38.2294H23.1329C23.1329 35.8706 22.3325 33.8865 20.7316 32.2768C19.1307 30.6672 17.1541 29.8623 14.8018 29.8623Z" fill="#936DFF"/>
</svg>
