<svg width="50" height="51" viewBox="0 0 50 51" fill="none" xmlns="http://www.w3.org/2000/svg">
<g clip-path="url(#clip0_218_886)">
<path d="M27.0056 4.34802C12.3057 4.43977 4.13013 13.1095 4.13013 27.2652C4.13013 41.7899 12.1014 50.1323 27.0181 50.2199C41.9202 50.1323 49.6183 42.4217 49.8936 27.2652C49.6392 12.582 41.5157 4.44185 27.0056 4.34802ZM27.0181 48.1348C13.2816 48.0535 6.47585 41.2332 6.21521 27.284C6.46542 13.5328 13.4651 6.5186 27.0035 6.43311C36.3301 6.49357 47.5103 10.1654 47.8064 27.2652C47.552 41.2269 40.7484 48.0535 27.016 48.1348H27.0181Z" fill="#DADAF1"/>
<path d="M28.2503 24.7506H25.7733C25.1978 24.7506 24.7307 25.2177 24.7307 25.7932C24.7307 26.3686 25.1978 26.8357 25.7733 26.8357H27.2078V35.4951C27.2078 36.0705 27.6749 36.5376 28.2503 36.5376C28.8258 36.5376 29.2929 36.0705 29.2929 35.4951V25.7932C29.2929 25.2177 28.8258 24.7506 28.2503 24.7506Z" fill="#DADAF1"/>
<path d="M27.0121 21.1642C27.8757 21.1642 28.5759 20.4641 28.5759 19.6004C28.5759 18.7368 27.8757 18.0366 27.0121 18.0366C26.1484 18.0366 25.4482 18.7368 25.4482 19.6004C25.4482 20.4641 26.1484 21.1642 27.0121 21.1642Z" fill="black"/>
</g>
<defs>
<clipPath id="clip0_218_886">
<rect width="49.3152" height="49.8921" fill="white" transform="translate(0.246338 0.630737)"/>
</clipPath>
</defs>
</svg>
