<svg width="200" height="200" viewBox="0 0 200 200" fill="none" xmlns="http://www.w3.org/2000/svg">
<g clip-path="url(#clip0_933_177)">
<path d="M99.9998 58.3336C116.108 58.3336 129.167 45.2752 129.167 29.1668C129.167 13.0584 116.108 0 99.9998 0C83.8914 0 70.833 13.0584 70.833 29.1668C70.833 45.2752 83.8914 58.3336 99.9998 58.3336Z" fill="#303C42"/>
<path d="M100 49.9999C111.506 49.9999 120.833 40.6726 120.833 29.1667C120.833 17.6608 111.506 8.3335 100 8.3335C88.4943 8.3335 79.167 17.6608 79.167 29.1667C79.167 40.6726 88.4943 49.9999 100 49.9999Z" fill="#FAFAFA"/>
<path opacity="0.1" d="M112.551 12.6465C113.63 15.1621 114.236 17.927 114.236 20.8332C114.236 32.3199 104.894 41.6664 93.4029 41.6664C88.6705 41.6664 84.3533 40.0199 80.8525 37.3531C84.0396 44.7801 91.4166 50 100 50C111.491 50 120.833 40.6535 120.833 29.1668C120.833 22.4105 117.551 16.4555 112.551 12.6465Z" fill="black"/>
<path d="M175.043 108.338C175.082 105.569 175.138 102.897 175.203 100.419C175.636 83.3878 175.796 71.7382 165.306 59.7203C166.148 58.0398 166.667 56.171 166.667 54.1668C166.667 47.2738 161.06 41.6667 154.167 41.6667C147.274 41.6667 141.667 47.2738 141.667 54.1668C141.667 61.0597 147.274 66.6668 154.167 66.6668C156.013 66.6668 157.753 66.239 159.333 65.5171C167.415 75.0347 167.281 84.3468 166.87 100.203C166.804 102.746 166.747 105.49 166.709 108.334H158.333V100.875C158.333 91.4593 153.141 82.9226 144.792 78.5929C134.302 73.1527 118.017 66.6668 99.9998 66.6668C81.9822 66.6668 65.6978 73.1527 55.208 78.5929C46.8584 82.9222 41.6662 91.4593 41.6662 100.875V108.334H33.649C33.6104 105.49 33.5541 102.746 33.4877 100.203C33.0764 84.3472 32.9428 75.0347 41.0252 65.5171C42.6045 66.239 44.3443 66.6668 46.1912 66.6668C53.0842 66.6668 58.6912 61.0597 58.6912 54.1668C58.6912 47.2738 53.0842 41.6667 46.1912 41.6667C39.2982 41.6667 33.6912 47.2738 33.6912 54.1668C33.6912 56.1714 34.2096 58.0398 35.0514 59.7203C24.5615 71.7382 24.7217 83.3878 25.1545 100.419C25.2197 102.896 25.276 105.566 25.3146 108.333H24.9998C15.8119 108.333 8.33301 115.808 8.33301 125V141.667C8.33301 150.859 15.8119 158.334 24.9998 158.334H25.751L33.4143 196.652C33.8135 198.633 35.5467 200 37.4916 200L37.4998 199.999V200H162.5V199.999L162.508 200C164.453 200 166.187 198.633 166.585 196.651L174.249 158.333H175C184.188 158.333 191.667 150.859 191.667 141.666V125C191.667 115.823 184.211 108.362 175.043 108.338Z" fill="#303C42"/>
<path d="M50 100.875C50 94.5844 53.4668 88.8836 59.0496 85.9906C68.7094 80.9773 83.6672 75 100 75C116.333 75 131.291 80.9773 140.95 85.9902C146.533 88.8832 150 94.584 150 100.875V108.333H50V100.875Z" fill="#FAFAFA"/>
<path d="M50 100.875C50 94.5844 53.4668 88.8836 59.0496 85.9906C68.7094 80.9773 83.6672 75 100 75C116.333 75 131.291 80.9773 140.95 85.9902C146.533 88.8832 150 94.584 150 100.875V108.333H50V100.875Z" fill="#FAFAFA"/>
<path opacity="0.1" d="M140.95 85.9902C131.291 80.9773 116.333 75 100 75C98.5336 75 97.0938 75.0996 95.6523 75.1914C109.048 76.1172 121.145 81.4277 129.205 85.9906C134.322 88.8836 137.5 94.5844 137.5 100.875V108.334H150V100.875C150 94.584 146.533 88.8836 140.95 85.9902Z" fill="black"/>
<path d="M159.085 191.667H40.9154L34.249 158.333H165.751L159.085 191.667Z" fill="#757575"/>
<path d="M183.333 141.667C183.333 146.26 179.598 150 175 150H25.0002C20.4021 150 16.667 146.26 16.667 141.667V125C16.667 120.406 20.4025 116.667 25.0002 116.667H175C179.598 116.667 183.333 120.406 183.333 125V141.667Z" fill="#757575"/>
<path d="M159.085 191.667L165.751 158.333H34.249L35.3396 163.786L63.2197 191.667H159.085Z" fill="url(#paint0_linear_933_177)"/>
<path opacity="0.2" d="M46.2026 57.9903C40.4136 57.9903 36.3237 55.0981 34.1687 50.9641C33.8948 51.9922 33.7026 53.0524 33.7026 54.1668C33.7026 61.0704 39.2991 66.6668 46.2026 66.6668C53.1062 66.6668 58.7026 61.0704 58.7026 54.1668C58.7026 53.0524 58.5104 51.9918 58.2366 50.9641C56.1765 55.7352 51.9917 57.9903 46.2026 57.9903Z" fill="black"/>
<path opacity="0.1" d="M25.0002 150H175C179.598 150 183.333 146.261 183.333 141.667V125C183.333 123.714 182.987 122.532 182.464 121.443C176.987 125.102 177.865 132.206 159.375 135.721C139.965 139.413 114.982 138.311 88.2814 139.584C74.9939 140.216 16.667 139.193 16.667 139.193V141.667C16.667 146.261 20.4021 150 25.0002 150Z" fill="black"/>
<path opacity="0.2" d="M154.186 57.9903C148.397 57.9903 144.307 55.0981 142.152 50.9641C141.878 51.9922 141.686 53.0524 141.686 54.1668C141.686 61.0704 147.283 66.6668 154.186 66.6668C161.09 66.6668 166.686 61.0704 166.686 54.1668C166.686 53.0524 166.494 51.9918 166.22 50.9641C164.16 55.7352 159.975 57.9903 154.186 57.9903Z" fill="black"/>
<path d="M99.9998 58.3332C116.081 58.3332 129.167 45.2473 129.167 29.1664C129.167 13.0855 116.081 0 99.9998 0C83.9189 0 70.833 13.0859 70.833 29.1668C70.833 45.2477 83.9189 58.3332 99.9998 58.3332ZM175.043 108.338C175.082 105.569 175.138 102.897 175.203 100.419C175.636 83.3879 175.796 71.7383 165.306 59.7203C166.148 58.0398 166.667 56.1711 166.667 54.1668C166.667 47.2738 161.06 41.6668 154.167 41.6668C147.274 41.6668 141.667 47.2738 141.667 54.1668C141.667 61.0598 147.274 66.6668 154.167 66.6668C156.013 66.6668 157.753 66.2391 159.333 65.5172C167.415 75.0348 167.281 84.3469 166.87 100.204C166.804 102.746 166.747 105.49 166.709 108.334H158.333V100.875C158.333 91.4594 153.141 82.9227 144.792 78.593C134.302 73.1527 118.017 66.6668 99.9998 66.6668C81.9822 66.6668 65.6978 73.1527 55.208 78.593C46.8584 82.9223 41.6662 91.4594 41.6662 100.875V108.334H33.649C33.6104 105.49 33.5541 102.746 33.4877 100.204C33.0764 84.3473 32.9428 75.0348 41.0252 65.5172C42.6045 66.2391 44.3443 66.6668 46.1912 66.6668C53.0842 66.6668 58.6912 61.0598 58.6912 54.1668C58.6912 47.2738 53.0842 41.6668 46.1912 41.6668C39.2982 41.6668 33.6912 47.2738 33.6912 54.1668C33.6912 56.1715 34.2096 58.0398 35.0514 59.7203C24.5615 71.7383 24.7217 83.3879 25.1545 100.419C25.2197 102.896 25.276 105.566 25.3146 108.333H24.9998C15.8119 108.333 8.33301 115.808 8.33301 125V141.667C8.33301 150.859 15.8119 158.334 24.9998 158.334H25.751L33.4143 196.652C33.8135 198.633 35.5467 200 37.4916 200L37.4998 199.999V200H162.5V199.999L162.508 200C164.453 200 166.187 198.633 166.585 196.651L174.249 158.333H175C184.188 158.333 191.667 150.859 191.667 141.666V125C191.667 115.823 184.211 108.363 175.043 108.338Z" fill="url(#paint1_linear_933_177)"/>
</g>
<defs>
<linearGradient id="paint0_linear_933_177" x1="66.0343" y1="126.557" x2="145.119" y2="205.641" gradientUnits="userSpaceOnUse">
<stop stop-opacity="0.1"/>
<stop offset="1" stop-opacity="0"/>
</linearGradient>
<linearGradient id="paint1_linear_933_177" x1="21.8314" y1="76.8391" x2="187.581" y2="154.131" gradientUnits="userSpaceOnUse">
<stop stop-color="white" stop-opacity="0.2"/>
<stop offset="1" stop-color="white" stop-opacity="0"/>
</linearGradient>
<clipPath id="clip0_933_177">
<rect width="200" height="200" fill="white"/>
</clipPath>
</defs>
</svg>
