<svg width="18" height="21" viewBox="0 0 18 21" fill="none" xmlns="http://www.w3.org/2000/svg">
<g clip-path="url(#clip0_318_104)">
<path d="M2 4.37793C2 10.384 6.8689 15.2529 12.875 15.2529C13.3745 15.2529 13.8662 15.2193 14.3478 15.1541C15.031 15.0615 15.5 14.4498 15.5 13.7604V11.8341C15.5 11.1885 15.0868 10.6152 14.4744 10.4111L12.1131 9.62395C11.5127 9.42385 10.8689 9.77718 10.7155 10.3912C10.5106 11.2106 9.49025 11.4932 8.89302 10.896L6.35695 8.35991C5.75976 7.76268 6.04238 6.74233 6.86172 6.5375C7.47575 6.384 7.82907 5.74026 7.62897 5.13982L6.84189 2.77858C6.63771 2.16607 6.0645 1.75293 5.41886 1.75293H3.49253C2.8031 1.75293 2.19139 2.22193 2.09889 2.90513C2.03368 3.38677 2 3.87841 2 4.37793Z" fill="black"/>
<path d="M2 17.8779C2 23.884 6.8689 28.7529 12.875 28.7529C13.3745 28.7529 13.8662 28.7193 14.3478 28.6541C15.031 28.5615 15.5 27.9498 15.5 27.2604V25.3341C15.5 24.6885 15.0868 24.1152 14.4744 23.9111L12.1131 23.124C11.5127 22.9239 10.8689 23.2772 10.7154 23.8912C10.5106 24.7106 9.49025 24.9932 8.89302 24.396L6.35695 21.8599C5.75976 21.2627 6.04238 20.2423 6.86172 20.0375C7.47575 19.884 7.82907 19.2403 7.62897 18.6398L6.84189 16.2786C6.63771 15.6661 6.0645 15.2529 5.41886 15.2529H3.49253C2.8031 15.2529 2.19139 15.7219 2.09889 16.4051C2.03368 16.8868 2 17.3784 2 17.8779Z" stroke="#323232" stroke-width="66.6667" stroke-linejoin="round"/>
</g>
<defs>
<clipPath id="clip0_318_104">
<rect width="18" height="19.2706" fill="white" transform="translate(0 0.75293)"/>
</clipPath>
</defs>
</svg>
