<svg width="200" height="200" viewBox="0 0 200 200" fill="none" xmlns="http://www.w3.org/2000/svg">
<g clip-path="url(#clip0_649_86)">
<path d="M117.786 14.7114L30.8815 23.5194L29.1338 22.3249L111.549 13.3786L111.455 12.4607L27.9644 21.5202L26.5121 20.5206L109.883 11.4045L109.776 10.4803L25.3365 19.7158L23.7333 18.6156L108.393 9.24808L108.299 8.33019L22.5702 17.8109L20.7721 16.5849L106.539 7.04766L106.432 6.12348L19.6028 15.7802L17.6664 14.4474L20.4452 14.1582L108.663 4.5706L105.438 0L8.95898 10.2226V11.6245V15.3464V138.225L26.4304 150.56V150.654L38.3567 149.44V29.2154L117.786 21.4385V14.7114Z" fill="#E0E0D3"/>
<path d="M153.596 38.6961L66.6857 47.5104L64.938 46.3159L147.353 37.3696L147.259 36.4454L63.7686 45.5049L62.3163 44.5115L145.687 35.3892L145.587 34.4713L61.1407 43.7005L59.5438 42.6003L144.21 33.2328L144.109 32.3149L58.3744 41.7956L56.5826 40.5696L142.343 31.0323L142.242 30.1082L55.4133 39.7649L53.4769 38.4321L56.2494 38.1429L144.48 28.5553L141.242 23.991L44.7632 34.2072V35.6092V39.3311V162.209L62.2409 174.551V174.645L74.1672 173.425V53.2001L153.59 45.4231L153.596 38.6961Z" fill="#5C6670"/>
<path d="M104.143 72.872L102.402 71.6712L184.823 62.7311L184.717 61.8132L101.232 70.8664L99.7801 69.8731L183.151 60.757L183.038 59.8329L98.5982 69.0684L96.995 67.9682L181.661 58.6006L181.567 57.6764L95.8319 67.1571L94.0464 65.9312L179.807 56.3939L179.706 55.476L92.8771 65.1265L90.9407 63.7999L93.7132 63.5107L181.944 53.9106L178.706 49.3525L82.2207 59.5751V60.9708V64.6927V187.571L99.6984 199.906V200.006L191.029 190.733L191.048 64.0514L104.143 72.872ZM174.72 119.307L122.023 124.683V96.6429L174.72 91.2738V119.307Z" fill="#E0E0D3"/>
</g>
<defs>
<clipPath id="clip0_649_86">
<rect width="200" height="200" fill="white"/>
</clipPath>
</defs>
</svg>
