<svg width="200" height="202" viewBox="0 0 200 202" fill="none" xmlns="http://www.w3.org/2000/svg">
<g clip-path="url(#clip0_639_724)">
<path d="M22.8154 91.7411C24.2493 95.3441 27.8243 98.9419 31.6499 98.4386C36.2213 97.8308 38.7159 92.0549 39.1554 86.6018C39.6757 80.4762 39.0395 73.5864 42.9645 68.1195C45.7157 64.2446 50.5878 61.7607 55.9924 61.4848C61.5996 61.1903 66.4926 63.0156 71.2513 65.3463C75.114 67.2422 79.8517 69.4147 82.539 65.8173C84.3356 63.4118 81.3152 61.7725 79.0326 60.0765C75.7592 57.602 74.4928 54.2686 75.7868 51.5742C77.2373 48.5002 80.575 48.2976 83.2579 48.1348C88.5542 47.8136 88.6551 46.4171 85.1333 42.8157C81.761 39.3574 81.141 37.5423 82.0365 32.8235C83.0845 27.3034 79.117 24.6113 74.652 25.0366C70.8551 25.3949 67.4114 27.7279 63.624 30.5118C62.0553 31.6631 59.8941 30.2418 60.3301 28.3459C61.5334 23.1266 62.233 17.8772 59.241 14.847C58.0432 13.6468 56.398 12.8955 54.9065 11.3067C54.3835 10.7502 52.7935 8.27921 51.1806 5.69238C27.2523 15.1505 8.99359 35.7986 2.61816 60.5885C7.04174 61.9156 12.1965 63.6763 14.0525 65.1118C22.1898 71.3429 19.8525 84.1296 22.8154 91.7411Z" fill="#E0E0D3"/>
<path d="M86.4888 101.323C85.5956 99.2052 84.3879 97.0851 83.1255 95.0146C81.5717 92.4629 79.9652 89.8248 77.7882 87.9116C76.2432 86.5557 74.4821 85.7079 72.8058 85.4741C72.7096 87.759 72.0707 90.2245 72.0573 90.2615C70.6974 93.9945 68.0621 96.0749 65.1545 97.925C61.7498 100.093 61.0742 100.856 62.2586 103.382C62.4309 103.749 62.6737 104.102 62.9034 104.459C68.5895 99.4752 74.339 102 86.4888 101.323Z" fill="#E0E0D3"/>
<path d="M62.8966 94.378C65.105 92.9732 67.114 91.5468 68.1081 88.82C68.2374 88.2812 68.6122 85.6731 68.6173 84.5482C67.8432 83.298 68.5602 81.6461 70.0174 81.3733C70.0193 81.3733 70.0213 81.3721 70.0233 81.3721C73.5328 80.7214 77.3715 81.95 80.5625 84.7532C83.2219 87.0893 85.078 90.1377 86.7161 92.8274C88.3333 95.4797 89.958 98.3444 90.9926 101.324H120.091C119.783 99.1768 118.735 96.9294 117.5 94.5026C117.188 93.8896 117.195 93.162 117.521 92.5562C117.846 91.9496 118.447 91.5401 119.13 91.4613C122.698 91.0454 125.59 90.5898 127.622 88.8461C129.187 87.4902 129.961 84.4181 128.378 83.2262C127.051 82.2152 124.202 82.4308 121.837 81.1711C117.059 78.6103 116.755 71.3287 120.649 67.6722C123.983 64.5394 129.385 63.9636 134.092 66.2382C138.334 68.2397 141.302 71.9424 143.411 74.9423C145.741 78.2504 147.671 81.4943 150.296 84.0898C151.723 85.4863 156.694 88.4318 161.127 90.965C161.546 87.5418 161.803 84.1182 161.803 80.7852C161.803 67.1763 158.338 53.8181 151.829 42.0266C150.302 43.5527 151.481 42.2859 148.498 45.9031C141.511 54.431 136.234 53.3581 131.47 48.0894C128.975 45.332 128.502 45.1763 125.139 45.5882C119.005 46.3288 116.043 44.237 115.412 37.3409C114.198 26.1824 115.762 20.95 126.304 17.4527C126.702 17.1748 127.64 16.379 128.575 15.569C114.717 5.38886 98.2805 0 80.9118 0C72.0997 0 63.4594 1.42289 55.2063 4.19891C56.5046 6.27019 57.6524 8.05294 57.9914 8.45104C58.8281 9.34222 61.0035 10.6638 62.2242 11.8833C65.4511 15.1532 65.8918 19.6513 65.3537 24.2018C67.9579 22.5834 70.9677 21.1613 74.2592 20.8515C80.5968 20.2674 87.8934 24.5191 86.167 33.6071C85.5541 36.8372 85.6633 37.3389 88.1429 39.8804C94.6579 46.5613 91.7399 51.8327 83.5128 52.3321C81.3769 52.4614 79.9488 52.6041 79.5827 53.3821C79.1601 54.2631 80.2827 55.751 81.5523 56.7119C86.0279 60.0197 89.4598 63.5804 85.9065 68.3343C81.7631 73.8742 75.6084 72.1698 69.3981 69.1203C65.2178 67.0699 61.0011 65.4267 56.2074 65.6829C52.0759 65.8941 48.4044 67.7187 46.3863 70.5617C43.2942 74.8702 43.8499 80.9661 43.345 86.949C42.7711 94.0765 39.1008 101.69 32.1929 102.608C31.7743 102.662 31.3572 102.687 30.9465 102.687C25.4879 102.688 20.833 98.1299 18.9032 93.2811C15.722 85.1166 17.8417 73.3109 11.4892 68.4439C10.2559 67.4908 5.85436 65.9588 1.65702 64.6841C0.577435 69.9409 0 75.3507 0 80.7852C0 117.594 24.7847 148.748 58.5873 158.439V113.936C58.5873 111.739 59.1541 109.674 60.1446 107.873C59.523 107.039 58.9243 106.171 58.4537 105.167C55.5784 99.0385 59.9826 96.2341 62.8966 94.378Z" fill="#E0E0D3"/>
<path d="M119.596 36.9217C120.024 41.622 121.048 41.8529 124.635 41.4131C129.304 40.8502 131.106 41.4182 134.587 45.2683C137.246 48.2067 139.529 50.2117 145.241 43.2439C148.555 39.2231 146.926 40.9854 149.657 38.2508C144.936 30.6038 139.003 23.8642 131.965 18.1899C129.11 20.6778 128.439 21.1812 127.791 21.3877C120.762 23.7006 118.345 25.4601 119.596 36.9217Z" fill="#E0E0D3"/>
<path d="M122.543 95.2474C123.373 97.0818 124.105 99.1475 124.32 101.323C159.046 101.366 157.681 101.215 159.112 101.47C159.646 99.4822 160.077 97.4566 160.457 95.4204C154.27 91.9101 149.21 88.9094 147.347 87.0864C144.346 84.12 142.216 80.5336 139.972 77.3627C138.159 74.7826 135.647 71.6195 132.28 70.0306C129.724 68.7958 125.908 68.499 123.528 70.7346C121.685 72.4649 121.661 76.306 123.817 77.4608C125.559 78.3867 128.499 78.0292 130.916 79.8726C134.722 82.733 133.995 88.8854 130.367 92.0291C128.062 94.0074 125.219 94.8071 122.543 95.2474Z" fill="#E0E0D3"/>
<path d="M161.508 106.684C160.268 105.969 158.838 105.527 157.304 105.527H71.1995C66.554 105.527 62.791 109.29 62.791 113.936V163.988H159.406C160.583 163.988 161.508 163.063 161.508 161.886C161.508 142.223 161.508 126.7 161.508 106.684Z" fill="#5C6670"/>
<path d="M165.712 154.151V161.887C165.712 165.355 162.874 168.193 159.406 168.193C30.981 168.221 70.5965 168.213 62.7911 168.215V177.527C62.7911 182.425 66.785 186.419 71.6836 186.419H78.6629C79.3775 177.022 87.2605 169.601 96.8676 169.601C106.453 169.601 114.315 177.022 115.03 186.419H154.551C155.266 177.022 163.148 169.601 172.756 169.601C182.341 169.601 190.204 177.022 190.918 186.419H191.108C196.006 186.419 200 182.425 200 177.527V154.151H165.712ZM176.097 162.559H172.733C171.577 162.559 170.631 161.613 170.631 160.457C170.631 159.28 171.577 158.355 172.733 158.355H176.097C177.253 158.355 178.2 159.279 178.2 160.457C178.199 161.613 177.254 162.559 176.097 162.559Z" fill="#E0E0D3"/>
<path d="M198.002 145.111L189.404 131.405C187.008 127.579 182.866 125.288 178.347 125.288H165.713V149.947H199.81C199.537 148.244 198.927 146.583 198.002 145.111ZM169.917 145.742V129.493H178.347C181.416 129.493 184.212 131.048 185.852 133.634L193.44 145.742H169.917Z" fill="#E0E0D3"/>
<path d="M172.755 173.806C165.019 173.806 158.712 180.091 158.712 187.806C158.712 195.521 165.019 201.806 172.755 201.806C180.47 201.806 186.755 195.521 186.755 187.806C186.755 180.091 180.47 173.806 172.755 173.806Z" fill="#E0E0D3"/>
<path d="M96.8672 173.806C89.1312 173.806 82.8247 180.091 82.8247 187.806C82.8247 195.521 89.1312 201.806 96.8672 201.806C104.582 201.806 110.868 195.521 110.868 187.806C110.868 180.091 104.582 173.806 96.8672 173.806Z" fill="#E0E0D3"/>
</g>
<defs>
<clipPath id="clip0_639_724">
<rect width="200" height="202" fill="white"/>
</clipPath>
</defs>
</svg>
