<svg width="200" height="200" viewBox="0 0 200 200" fill="none" xmlns="http://www.w3.org/2000/svg">
<path d="M3.37207 82.4927V167.868C3.37207 177.251 10.9779 184.857 20.3604 184.857H179.639C189.022 184.857 196.628 177.251 196.628 167.868V82.4927H3.37207Z" fill="#D9D9D9"/>
<path d="M17.0436 33.5188C9.49279 33.5188 3.37207 39.6395 3.37207 47.1903V82.4931H196.628V47.1903C196.628 39.6395 190.507 33.5188 182.956 33.5188H17.0436Z" fill="#5C6670"/>
<path opacity="0.1" d="M25.8534 167.868V47.1903C25.8534 39.6395 31.9741 33.5188 39.5249 33.5188H17.0436C9.49279 33.5188 3.37207 39.6395 3.37207 47.1903V167.869C3.37207 177.251 10.9779 184.857 20.3604 184.857H42.8417C33.4592 184.857 25.8534 177.251 25.8534 167.868Z" fill="black"/>
<path d="M38.1765 52.5477C33.8308 52.5477 30.3081 49.025 30.3081 44.6793V23.0117C30.3081 18.666 33.8308 15.1433 38.1765 15.1433C42.5222 15.1433 46.0449 18.666 46.0449 23.0117V44.6793C46.0449 49.025 42.5222 52.5477 38.1765 52.5477Z" fill="#515262"/>
<path d="M79.3923 52.5477C75.0466 52.5477 71.5239 49.025 71.5239 44.6793V23.0117C71.5239 18.666 75.0466 15.1433 79.3923 15.1433C83.738 15.1433 87.2607 18.666 87.2607 23.0117V44.6793C87.2607 49.025 83.738 52.5477 79.3923 52.5477Z" fill="#515262"/>
<path d="M120.608 52.5477C116.262 52.5477 112.74 49.025 112.74 44.6793V23.0117C112.74 18.666 116.262 15.1433 120.608 15.1433C124.954 15.1433 128.476 18.666 128.476 23.0117V44.6793C128.476 49.025 124.954 52.5477 120.608 52.5477Z" fill="#515262"/>
<path d="M161.823 52.5477C157.478 52.5477 153.955 49.025 153.955 44.6793V23.0117C153.955 18.666 157.478 15.1433 161.823 15.1433C166.169 15.1433 169.692 18.666 169.692 23.0117V44.6793C169.692 49.025 166.169 52.5477 161.823 52.5477Z" fill="#515262"/>
<path d="M79.3923 11.771C73.1943 11.771 68.1517 16.8136 68.1517 23.0116V30.1464H49.4173V23.0116C49.4173 16.8136 44.3747 11.771 38.1766 11.771C31.9786 11.771 26.936 16.8136 26.936 23.0116V30.1464H17.0438C7.64533 30.1464 0 37.7917 0 47.1902V57.8848C0 59.7473 1.50977 61.257 3.37227 61.257C5.23478 61.257 6.74454 59.7473 6.74454 57.8848V47.1902C6.74454 41.5109 11.3645 36.891 17.0438 36.891H26.9356V44.6793C26.9356 50.8773 31.9782 55.9199 38.1763 55.9199C44.3743 55.9199 49.4169 50.8773 49.4169 44.6793V36.891H68.1513V44.6793C68.1513 50.8773 73.1939 55.9199 79.392 55.9199C85.59 55.9199 90.6326 50.8773 90.6326 44.6793V36.891H109.367V44.6793C109.367 50.8773 114.41 55.9199 120.608 55.9199C126.806 55.9199 131.848 50.8773 131.848 44.6793V36.891H150.583V44.6793C150.583 50.8773 155.626 55.9199 161.824 55.9199C168.022 55.9199 173.064 50.8773 173.064 44.6793V36.891H182.956C188.635 36.891 193.255 41.5113 193.255 47.1902V55.7562C193.255 57.6187 194.765 59.1285 196.628 59.1285C198.49 59.1285 200 57.6187 200 55.7562V47.1902C200 37.7921 192.355 30.1464 182.956 30.1464H173.064V23.0116C173.064 16.8136 168.022 11.771 161.824 11.771C155.626 11.771 150.583 16.8136 150.583 23.0116V30.1464H131.848V23.0116C131.848 16.8136 126.806 11.771 120.608 11.771C114.41 11.771 109.367 16.8136 109.367 23.0116V30.1464H90.6326V23.0116C90.633 16.8136 85.5904 11.771 79.3923 11.771ZM42.6723 44.6793C42.6723 47.1586 40.6552 49.1754 38.1763 49.1754C35.6969 49.1754 33.6801 47.1582 33.6801 44.6793V23.0116C33.6801 20.5323 35.6973 18.5155 38.1763 18.5155C40.6556 18.5155 42.6723 20.5327 42.6723 23.0116V44.6793ZM83.8884 44.6793C83.8884 44.8343 83.8802 44.9871 83.865 45.1382C83.6498 47.2515 81.9646 48.9367 79.8513 49.1519C79.7002 49.1672 79.5474 49.1754 79.3923 49.1754C79.2373 49.1754 79.0845 49.1672 78.9334 49.1519C76.8197 48.9367 75.1349 47.2515 74.9197 45.1382C74.9044 44.9871 74.8962 44.8343 74.8962 44.6793V23.0116C74.8962 20.5323 76.9134 18.5155 79.3923 18.5155C81.8717 18.5155 83.8884 20.5327 83.8884 23.0116V44.6793ZM157.327 23.0116C157.327 20.5323 159.344 18.5155 161.823 18.5155C164.302 18.5155 166.319 20.5327 166.319 23.0116V44.6793C166.319 44.8343 166.311 44.9871 166.296 45.1382C166.081 47.2515 164.396 48.9367 162.282 49.1519C162.131 49.1672 161.978 49.1754 161.823 49.1754C161.668 49.1754 161.516 49.1672 161.364 49.1519C159.251 48.9367 157.566 47.2515 157.351 45.1382C157.335 44.9871 157.327 44.8343 157.327 44.6793V23.0116ZM116.112 23.0116C116.112 20.5323 118.129 18.5155 120.608 18.5155C123.087 18.5155 125.104 20.5327 125.104 23.0116V44.6793C125.104 44.8343 125.096 44.9871 125.081 45.1382C124.865 47.2515 123.18 48.9367 121.067 49.1519C120.916 49.1672 120.763 49.1754 120.608 49.1754C120.453 49.1754 120.3 49.1672 120.149 49.1519C118.035 48.9367 116.351 47.2515 116.135 45.1382C116.12 44.9871 116.112 44.8343 116.112 44.6793V23.0116Z" fill="#333E48"/>
<path d="M179.639 188.229C190.866 188.229 200 179.095 200 167.868V69.2451C200 67.3826 198.49 65.8728 196.628 65.8728C194.765 65.8728 193.255 67.3826 193.255 69.2451V79.1209H6.74454V71.3736C6.74454 69.5111 5.23478 68.0013 3.37227 68.0013C1.50977 68.0013 0 69.5111 0 71.3736V167.868C0 179.095 9.13361 188.229 20.3606 188.229H179.639ZM165.196 85.865H193.255V112.082H165.196V85.865ZM165.196 118.826H193.255V145.691H165.196V118.826ZM165.196 152.435H193.255V167.868C193.255 175.376 187.147 181.484 179.639 181.484H165.196V152.435ZM123.98 85.865H158.452V112.082H123.98V85.865ZM123.98 118.826H158.452V145.691H123.98V118.826ZM123.98 152.435H158.452V181.484H123.98V152.435ZM82.7646 85.865H117.236V112.082H82.7646V85.865ZM82.7646 118.826H117.236V145.691H82.7646V118.826ZM82.7646 152.435H117.236V181.484H82.7646V152.435ZM41.5489 85.865H76.0201V112.082H41.5489V85.865ZM41.5489 118.826H76.0201V145.691H41.5489V118.826ZM41.5489 152.435H76.0201V181.484H41.5489V152.435ZM6.74454 85.865H34.8044V112.082H6.74454V85.865ZM6.74454 118.826H34.8044V145.691H6.74454V118.826ZM6.74454 167.868V152.435H34.8044V181.484H20.3606C12.8528 181.484 6.74454 175.376 6.74454 167.868Z" fill="#7F7F7F"/>
</svg>
