<svg width="60" height="100" viewBox="0 0 60 100" fill="none" xmlns="http://www.w3.org/2000/svg">
<path d="M26.7527 3.12508C27.0257 3.12433 27.2955 3.22475 27.5428 3.41919C27.7901 3.61363 28.009 3.89732 28.1837 4.25008L49.7514 48.0001C50.0271 48.5604 50.178 49.265 50.178 49.9923C50.178 50.7196 50.0271 51.4241 49.7514 51.9845L28.1837 95.7345C28.0305 96.0628 27.8398 96.3362 27.6227 96.5386C27.4057 96.741 27.1668 96.8682 26.92 96.9128C26.6732 96.9574 26.4237 96.9184 26.186 96.7982C25.9484 96.6779 25.7274 96.4789 25.5363 96.2127C25.3451 95.9466 25.1876 95.6188 25.073 95.2487C24.9584 94.8785 24.889 94.4735 24.869 94.0575C24.849 93.6416 24.8788 93.2231 24.9565 92.8268C25.0342 92.4305 25.1584 92.0644 25.3216 91.7501L45.9043 50.0001L25.3216 8.25008C25.0954 7.79341 24.9514 7.23775 24.9063 6.64826C24.8613 6.05878 24.9171 5.45993 25.0674 4.92195C25.2176 4.38396 25.4559 3.92918 25.7544 3.61091C26.0529 3.29264 26.3992 3.12411 26.7527 3.12508Z" fill="black" fill-opacity="0.6"/>
<path d="M11.1506 3.12508C11.4237 3.12433 11.6934 3.22475 11.9408 3.41919C12.1881 3.61363 12.4069 3.89732 12.5817 4.25008L34.1493 48.0001C34.4251 48.5604 34.5759 49.265 34.5759 49.9923C34.5759 50.7196 34.4251 51.4241 34.1493 51.9845L12.5817 95.7345C12.4285 96.0628 12.2377 96.3362 12.0207 96.5386C11.8037 96.741 11.5647 96.8682 11.3179 96.9128C11.0712 96.9574 10.8216 96.9184 10.584 96.7982C10.3463 96.6779 10.1254 96.4789 9.93421 96.2127C9.74305 95.9466 9.58552 95.6188 9.47092 95.2487C9.35632 94.8785 9.28697 94.4735 9.26697 94.0575C9.24697 93.6416 9.27671 93.2231 9.35445 92.8268C9.43219 92.4305 9.55634 92.0644 9.71959 91.7501L30.3116 50.0001L9.71959 8.25008C9.49338 7.79341 9.34931 7.23775 9.30427 6.64826C9.25923 6.05878 9.3151 5.45993 9.46531 4.92195C9.61553 4.38396 9.85387 3.92918 10.1524 3.61091C10.4509 3.29264 10.7972 3.12411 11.1506 3.12508Z" fill="black" fill-opacity="0.6"/>
</svg>
