<svg xmlns="http://www.w3.org/2000/svg" width="950" height="840" viewBox="0 0 950 840" fill="none">
<g clip-path="url(#clip0_217_787)">
<path d="M88.1905 743.222C83.4928 748.19 79.5647 753.524 75.137 758.642C73.6963 760.308 72.5876 762.009 70.0854 762.335C69.2656 763.209 68.7896 763.74 68.4417 764.845C66.8403 765.059 65.0842 765.157 63.9943 766.303C63.3636 766.966 62.8955 767.897 62.4451 768.66L59.7263 773.178C66.862 782.034 77.0183 787.619 87.1834 793.655C86.8424 793.908 86.5625 794.236 86.1604 794.413C82.7527 795.922 65.6282 796.001 61.1246 796.281C50.4944 796.94 10.4341 800.174 2.55923 805.429C1.51859 806.123 1.21509 806.633 0.918457 807.7C1.92758 809.454 4.31335 810.097 6.36313 810.702C28.2553 817.167 61.6588 818.335 84.9128 819.787C107.468 821.26 130.048 822.384 152.652 823.158C175.255 823.932 197.868 824.355 220.49 824.428C243.112 824.5 265.728 824.222 288.338 823.593C310.948 822.965 333.537 821.986 356.105 820.657C379.445 819.414 421.717 818.673 441.948 810.56C443.109 810.094 443.714 809.719 444.425 808.771C444.288 807.678 444.111 807.28 443.041 806.598C432.588 799.945 351.891 794.337 338.33 796.691C338.173 796.719 338.018 796.75 337.862 796.779L336.8 796.749C335.092 795.211 316.679 786.589 312.737 784.48C306.644 780.793 300.968 776.982 295.599 772.548C294.277 772.581 293.416 772.506 292.126 772.165C291.074 771.634 290.597 771.178 289.323 771.505C286.252 772.292 283.159 774.174 280.16 775.247C272.992 777.816 263.981 777.513 256.809 775.16C254.83 774.511 252.807 773.701 250.961 772.818C250.5 774.553 250.2 776.54 249.111 778.073L247.777 778.786C246.846 782.488 245.84 788.044 246.165 791.769L245.644 793.59C214.968 791.951 184.086 793.079 153.424 794.277C148.861 790.657 144.527 786.85 140.422 782.856C136.318 778.861 132.464 774.7 128.861 770.371C127.535 768.099 125.955 765.889 124.506 763.67L122.364 764.144C120.49 760.741 118.946 757.682 118.568 753.901C112.413 754.968 106.26 755.596 100.205 753.687C94.0846 751.758 90.8049 748.054 88.1905 743.222Z" fill="#E8ECE4"></path>
<path d="M246.165 791.769L245.644 793.59C244.716 799.216 242.164 807.123 245.361 812.426C247.214 813.898 250.955 814.215 253.447 814.439C262.559 815.259 272.38 814.785 281.551 814.799C297.702 814.821 313.941 814.96 330.082 814.521C334.582 814.399 347.806 814.477 350.942 812.374C352.21 811.522 352.399 809.698 352.247 808.432C352.027 806.752 351.604 805.109 350.979 803.504C349.587 802.635 348.217 801.711 346.693 801.017C346.89 802.372 347.425 804.633 348.692 805.496C349.201 806.912 349.937 808.737 349.153 810.165C348.813 810.783 348.125 810.919 347.383 811.088C339.322 812.923 264.21 812.81 253.378 812.039C251.653 811.916 249.758 811.799 248.329 810.872C247.521 810.347 247.203 809.93 246.749 809.181C246.684 807.837 246.824 807.621 247.579 806.424C248.794 805.733 249.865 805.893 251.249 805.958C252.521 805.838 253.806 805.821 255.085 805.775L254.792 805.372L250.221 804.555L250.312 804.248C251.603 804.465 252.746 804.716 254.066 804.497C251.918 803.67 248.86 803.789 246.509 803.642C246.745 801.902 246.968 800.161 247.177 798.418C247.457 796.037 248.084 793.759 246.165 791.769Z" fill="black"></path>
<path d="M348.692 805.497C345.138 805.679 341.562 805.916 338.002 805.962C320.638 807.179 302.839 806.793 285.416 806.8C274.921 806.805 261.332 807.496 251.249 805.958C249.865 805.893 248.794 805.733 247.579 806.424C246.824 807.621 246.685 807.838 246.75 809.182C247.203 809.93 247.521 810.348 248.329 810.872C249.758 811.799 251.653 811.917 253.378 812.039C264.21 812.81 339.322 812.923 347.383 811.088C348.125 810.919 348.813 810.783 349.153 810.165C349.937 808.737 349.201 806.913 348.692 805.497Z" fill="#FEFEFE"></path>
<path d="M292.126 772.165C291.074 771.634 290.597 771.177 289.322 771.504C286.252 772.291 283.158 774.173 280.16 775.247C272.992 777.816 263.981 777.513 256.809 775.159C254.83 774.51 252.807 773.701 250.961 772.818C250.5 774.553 250.2 776.539 249.11 778.073L247.777 778.786C246.846 782.488 245.84 788.044 246.165 791.769C248.084 793.759 247.457 796.037 247.177 798.418C246.968 800.161 246.745 801.902 246.509 803.642C248.86 803.789 251.918 803.67 254.065 804.497C252.746 804.716 251.603 804.465 250.312 804.248L250.221 804.555L254.792 805.372L255.084 805.775C253.806 805.821 252.521 805.838 251.249 805.958C261.332 807.495 274.921 806.804 285.416 806.8C302.839 806.793 320.638 807.178 338.002 805.962C341.562 805.915 345.137 805.679 348.692 805.496C347.425 804.633 346.89 802.372 346.693 801.017C344.624 799.274 340.484 797.907 337.862 796.779L336.8 796.749C335.092 795.211 316.679 786.589 312.737 784.48C306.644 780.793 300.968 776.982 295.599 772.547C294.276 772.581 293.416 772.506 292.126 772.165Z" fill="#1D2237"></path>
<path d="M337.862 796.779L336.8 796.749C337.355 798.645 337.927 799.315 339.911 800.298C342.495 801.58 345.41 802.359 348.134 803.4C344.433 803.826 340.859 803.692 338.002 805.962C341.562 805.915 345.137 805.679 348.692 805.496C347.425 804.633 346.89 802.372 346.693 801.017C344.624 799.274 340.484 797.907 337.862 796.779Z" fill="#0E101C"></path>
<path d="M295.599 772.548C294.277 772.581 293.416 772.506 292.126 772.165C294.309 774.057 296.762 775.894 298.341 778.193L300.111 779.604C300.327 779.698 300.546 779.789 300.762 779.885C304.249 781.434 307.665 785.546 312.091 784.658C312.312 784.614 312.523 784.539 312.737 784.48C306.644 780.793 300.968 776.982 295.599 772.548Z" fill="#0E101C"></path>
<path d="M298.341 778.193C293.303 780.4 281.642 787.426 278.835 791.609L278.798 792.617L279.549 793.142C280.432 792.955 297.156 781.364 300.111 779.604L298.341 778.193Z" fill="#FEFEFE"></path>
<path d="M88.1906 743.222C83.4929 748.19 79.5648 753.524 75.1371 758.642C73.6963 760.308 72.5877 762.009 70.0855 762.335C69.2656 763.209 68.7897 763.74 68.4418 764.845C66.8404 765.059 65.0843 765.157 63.9944 766.303C63.3637 766.966 62.8956 767.897 62.4452 768.66L59.7263 773.178C66.8621 782.034 77.0184 787.619 87.1835 793.655C106.504 804.171 126.031 811.681 148.957 814.545C153.337 815.092 158.584 816.041 162.934 815.188C164.473 814.886 165.362 814.439 166.422 813.465C167.314 811.528 167.122 809.317 167.041 807.264C163.944 803.022 159.516 799.547 155.355 796.058L153.424 794.277C148.861 790.657 144.527 786.85 140.422 782.856C136.318 778.861 132.464 774.7 128.861 770.371C127.535 768.099 125.955 765.889 124.506 763.67L122.364 764.144C120.49 760.741 118.946 757.682 118.568 753.901C112.413 754.968 106.26 755.596 100.205 753.687C94.0847 751.758 90.805 748.054 88.1906 743.222Z" fill="#1D2237"></path>
<path d="M128.861 770.37C127.535 768.099 125.954 765.889 124.506 763.669L122.363 764.144C122.663 765.119 122.986 766.032 123.067 767.042L123.349 767.472C124.502 768.724 125.221 769.331 126.902 770.026C127.114 770.114 127.322 770.211 127.532 770.301C128.202 770.588 127.814 770.483 128.861 770.37Z" fill="#0E101C"></path>
<path d="M123.067 767.042C118.932 765.879 110.897 769.446 107.25 771.016C104.055 772.391 101.028 773.875 98.7132 776.249L98.7979 776.796C102.788 776.578 106.095 773.786 109.633 772.468C113.819 770.908 118.241 769.54 122.61 768.395L123.349 767.472L123.067 767.042Z" fill="#FEFEFE"></path>
<path d="M68.4418 764.845C66.8404 765.059 65.0843 765.157 63.9944 766.303C63.3637 766.966 62.8956 767.897 62.4452 768.66L59.7263 773.178C66.8621 782.034 77.0184 787.619 87.1835 793.655C106.504 804.171 126.031 811.681 148.957 814.545C153.337 815.092 158.584 816.041 162.934 815.188C164.473 814.886 165.362 814.439 166.422 813.465C167.314 811.528 167.122 809.317 167.041 807.264C163.944 803.022 159.516 799.547 155.355 796.058C154.998 797.296 155.023 797.957 155.823 799.069C157.484 801.377 162.261 803.658 162.352 806.37C162.128 806.377 161.905 806.379 161.681 806.39C160.951 806.425 160.43 806.521 159.744 806.708L159.552 807.477C158.861 807.508 158.154 807.433 157.464 807.383C127.245 805.179 86.7154 787.404 66.938 767.553C67.0425 767.509 67.1637 767.487 67.2514 767.422C68.2457 766.695 68.2171 765.868 68.4418 764.845Z" fill="#FEFEFE"></path>
<path d="M68.4418 764.845C66.8404 765.059 65.0843 765.157 63.9944 766.303C63.3637 766.966 62.8956 767.897 62.4452 768.66L59.7263 773.178C66.8621 782.034 77.0184 787.619 87.1835 793.655C106.504 804.171 126.031 811.681 148.957 814.545C153.337 815.092 158.584 816.041 162.934 815.188C164.473 814.886 165.362 814.439 166.422 813.465C167.314 811.528 167.122 809.317 167.041 807.264C163.944 803.022 159.516 799.547 155.355 796.058C154.998 797.296 155.023 797.957 155.823 799.069C157.484 801.377 162.261 803.658 162.352 806.37C162.128 806.377 161.905 806.379 161.681 806.39C160.951 806.425 160.43 806.521 159.744 806.708L159.552 807.477C161.12 807.633 163.258 807.633 164.396 808.692C165.189 809.43 165.172 809.773 164.999 810.659C164.249 811.543 163.6 812.033 162.435 812.466C155.402 815.083 129.669 808.891 122.435 806.474C116.005 804.326 109.735 801.985 103.628 799.234C95.4604 795.555 65.7308 780.133 63.48 773.234C63.0326 771.864 63.7244 771.15 64.3758 769.944L66.938 767.553C67.0425 767.509 67.1637 767.487 67.2514 767.422C68.2457 766.695 68.2171 765.868 68.4418 764.845Z" fill="black"></path>
<path d="M942.338 469.429C942.787 457.042 942.524 444.601 942.525 432.207L942.457 369.677L942.619 218.059L942.646 117.249L942.625 85.8576C942.613 78.3069 942.855 70.7157 941.97 63.1943C940.568 62.4045 938.849 62.2762 937.208 62.1355C921.29 60.7722 905.059 60.293 889.081 59.3434C862.174 57.7691 835.279 56.0587 808.395 54.2124L515.887 36.0594C477.565 33.3274 439.218 30.8843 400.846 28.7299C388.218 28.0371 375.559 26.8732 362.911 26.5597C362.564 31.6327 362.967 36.8377 362.918 41.9345C362.724 62.4574 363.762 83.5734 362.755 103.998C361.611 113.575 362.456 123.811 362.48 133.471C338.06 128.386 312.693 120.669 288.18 114.876C229.057 100.902 153.991 89.848 98.4562 118.307C56.895 139.605 26.0134 187.476 14.8363 226.688C12.41 235.015 10.4375 243.419 8.91852 251.9C7.3996 260.38 6.34058 268.902 5.74139 277.465C1.56793 345.115 27.4542 413.922 68.7847 471.249C86.4522 495.754 108.372 517.381 132.907 537.086C141.468 543.961 152.211 549.869 159.853 557.301C158.05 565.947 155.982 574.632 152.542 582.929C149.02 591.419 143.856 599.168 139.399 607.299C134.398 616.426 130.063 626.01 125.878 635.428C111.623 667.511 99.3884 700.355 86.5202 732.855C87.7658 733.737 88.9957 734.651 90.3024 735.467C84.3423 744.865 75.886 752.92 70.0855 762.335C72.5876 762.009 73.6963 760.308 75.1371 758.642C79.5648 753.523 83.4928 748.19 88.1906 743.222C90.805 748.054 94.0847 751.758 100.205 753.687C106.26 755.596 112.413 754.968 118.568 753.901C118.946 757.682 120.49 760.741 122.364 764.144L124.506 763.669C125.955 765.889 127.535 768.099 128.861 770.37C132.464 774.7 136.318 778.861 140.422 782.856C144.527 786.85 148.861 790.657 153.424 794.276C184.086 793.079 214.968 791.951 245.644 793.59L246.165 791.769C245.84 788.044 246.846 782.488 247.777 778.786L249.111 778.073C250.201 776.54 250.5 774.553 250.961 772.818C252.807 773.701 254.83 774.51 256.809 775.159C263.981 777.513 272.992 777.816 280.16 775.247C283.159 774.173 286.252 772.292 289.323 771.505C290.597 771.178 291.074 771.634 292.126 772.165C293.416 772.506 294.277 772.581 295.599 772.548C294.218 771.332 292.683 770.213 291.226 769.063C291.058 766.731 290.769 764.441 291.472 762.151C292.383 761.276 293.695 760.202 294.24 759.117C295.719 756.175 298.278 740.834 299.265 736.268C302.267 722.638 304.957 708.963 307.333 695.244C309.709 681.525 311.771 667.772 313.517 653.985C315.264 640.198 316.694 626.387 317.808 612.553C318.922 598.718 319.719 584.871 320.198 571.01C329.181 569.345 338.738 568.683 347.853 567.496C367.807 564.898 387.634 562.128 407.291 558.154C446.966 550.134 500.198 535.635 522.57 504.39C536.179 485.383 534.357 459.788 528.092 439.068C526.016 432.204 522.855 425.52 520.924 418.673L520.745 418.021C553.974 421.741 587.124 426.734 620.261 431.037L807.697 455.376C836.372 459.394 865.095 463.159 893.863 466.67C905.294 468.114 917.151 470.558 928.653 471.146C932.986 471.367 938.084 470.104 942.338 469.429Z" fill="black"></path>
<path d="M155.596 262.282C153.631 260.508 151.871 258.623 149.191 257.64L148.163 257.69C147.997 258.738 148.554 259.678 149.264 260.512C150.36 261.798 151.82 262.985 153.103 264.145C153.911 262.972 154.151 262.906 155.596 262.282Z" fill="#E8ECE4"></path>
<path d="M418.953 143.709C415.996 144.774 413.816 146.073 411.694 148.116C410.335 149.424 407.836 151.978 407.969 153.752C408.829 154.229 409.085 154.089 410.081 154.074C414.829 152.642 418.948 150.651 423.232 148.415C421.736 146.903 420.366 145.278 418.953 143.709Z" fill="#8EB2B3"></path>
<path d="M119.036 214.988C118.383 214.36 117.799 213.425 116.801 213.359C116.87 216.762 118.755 219.898 121.543 222.289C125.664 225.825 132.461 228.553 138.394 228.467C139.497 228.452 140.164 228.43 140.951 227.734C140.186 227.072 139.57 226.865 138.549 226.557C131.29 224.798 123.364 220.276 119.036 214.988Z" fill="#E8ECE4"></path>
<path d="M182.118 154.834C182.33 152.946 182.107 151.668 180.967 149.996C179.531 147.89 177.309 146.787 174.587 146.162C168.462 144.754 163.273 146.396 158.077 149.027L158.762 150.09C165.517 148.831 172.037 148.943 178.016 152.301C178.159 152.381 178.292 152.473 178.429 152.558C179.775 153.23 180.919 153.988 182.118 154.834Z" fill="#E8ECE4"></path>
<path d="M149.415 152.117C147.112 149.957 145.141 148.883 141.632 148.644C137.937 148.391 134.12 149.96 131.415 152C129.094 153.75 126.255 156.902 126.059 159.63C126.046 159.806 126.071 159.983 126.078 160.159L126.552 160.449C127.221 159.945 127.881 159.433 128.532 158.911C128.947 158.35 129.603 157.88 130.187 157.446C135.207 153.719 142.838 151.78 149.415 152.117Z" fill="#E8ECE4"></path>
<path d="M121.926 167.368C116.566 167.941 111.994 169.431 108.548 173.161C105.106 176.886 103.853 182.041 104.754 186.678C105.247 189.211 106.333 191.971 108.033 194.09L108.875 194.425C109.469 193.676 109.293 194.055 109.49 193.321C109.451 191.266 109.397 189.199 109.535 187.146C110.092 178.845 114.773 172.755 121.926 167.368Z" fill="#E8ECE4"></path>
<path d="M204.607 246.349C203.403 247.382 202.967 252.046 202.58 253.707C202.172 255.459 201.916 256.902 199.95 257.909C196.262 259.8 189.462 258.317 185.518 257.515C188.57 259.858 190.947 262.541 193.79 265.024L194.483 264.753C195.604 263.827 196.62 262.795 197.658 261.801C203.088 262.593 208.478 264.007 213.808 265.191C212.982 261.39 212.12 257.395 210.838 253.69C209.58 250.052 208.561 248.141 204.607 246.349Z" fill="#FEFEFE"></path>
<path d="M92.9967 736.861L92.5188 736.921C91.1923 738.755 90.6819 740.183 91.0859 742.352C91.7412 745.881 94.5242 748.883 98.0039 750.773C103.496 753.757 110.269 753.752 116.44 752.657C117.973 752.233 118.764 752.011 119.565 750.819C119.471 750.541 119.462 750.232 119.285 749.985C118.505 748.898 96.4074 738.766 92.9967 736.861Z" fill="#8EB2B3"></path>
<path d="M364.047 298.984C354.536 300.646 342.706 301.166 333.723 303.653C328.908 304.985 326.376 307.401 324.054 311.092L324.414 311.82C337.911 310.139 351.719 308.515 365.016 305.942L364.969 304.098C364.933 302.209 364.828 300.77 364.047 298.984Z" fill="#FEFEFE"></path>
<path d="M288.159 762.001C275.854 762.727 263.649 762.877 251.322 762.894C251.43 765.141 250.805 767.865 251.416 770.022C251.842 771.53 252.428 771.527 253.901 772.214C258.425 773.937 263.06 775.041 268.046 775.07C273.976 775.104 282.386 773.591 286.574 769.853C288.622 768.025 288.126 764.344 288.159 762.001Z" fill="#8EB2B3"></path>
<path d="M161.889 246.035C158.065 248.85 154.559 251.896 151.024 254.964C160.391 263.144 169.783 270.594 181.341 276.538C185.219 274.164 188.499 269.414 191.623 266.252C183.765 257.105 171.002 253.828 161.889 246.035Z" fill="#8EB2B3"></path>
<path d="M319.503 403.031C309.027 405.418 298.191 406.656 287.498 408.133C289.869 417.848 291.525 427.581 293.06 437.411L293.448 438.387C294.453 438.816 294.443 438.7 295.532 438.556C303.156 437.538 316.144 434.84 320.711 429.281C325.996 422.848 321.094 410.218 319.503 403.031Z" fill="#8EB2B3"></path>
<path d="M382.32 219.552L381.504 219.436C376.518 225.455 371.398 231.391 366.145 237.243L366.166 297.703C368.207 300.185 368.164 302.047 368.159 304.949C372.606 304.443 378.04 304.266 382.223 302.925C381.538 298.611 382.009 293.819 382.029 289.446L382.141 263.312L382.049 235.08C382.032 230.004 381.566 224.584 382.32 219.552Z" fill="#FEFEFE"></path>
<path d="M423.762 111.012C423.179 111.273 422.608 111.496 422.18 111.941C419.583 114.643 414.978 121.802 412.141 125.297C405.603 133.351 397.576 140.978 392.076 149.575C389.42 153.728 388.228 158.177 386.609 162.648C384.123 169.517 378.418 174.885 373.001 180.238C379.851 184.616 386.876 188.889 393.342 193.675C396.805 187.884 400.158 181.304 405.261 176.428C409.355 172.519 414.507 169.132 418.882 165.393C421.261 163.108 424.749 160.299 425.446 157.21C424.009 156.175 413.602 162.53 409.492 162.241C408.375 161.617 408.343 161.568 407.871 160.503L408.249 159.963L410.481 160.41C414.975 159.199 422.676 155.812 426.522 153.485C426.687 153.385 426.848 153.282 427.012 153.181C426.446 152.057 425.82 151.074 425.073 150.028C421.495 150.308 413.811 155.881 408.898 156.711C407.683 156.917 407.185 156.818 406.218 156.207C406.003 155.677 405.957 155.659 405.914 155.007C405.557 149.623 411.377 145.4 415.522 142.122C414.727 141.417 414.129 141.116 413.072 140.739C409.9 140.969 408.334 143.793 406.271 145.504C405.27 146.334 404.805 146.485 403.425 146.519C402.429 145.8 402.291 145.633 401.839 144.591C402.713 144.306 403.674 144.04 404.398 143.512C410.327 139.188 425.159 120.457 425.425 114.004C425.48 112.658 424.721 111.977 423.762 111.012Z" fill="#8EB2B3"></path>
<path d="M286.247 354.51C280.877 353.984 260.675 364.57 254.105 366.704C248.765 368.439 243.099 369.178 237.453 369.772C237.657 376.331 238.443 382.662 239.77 389.12C249.498 385.562 265.874 385.273 273.494 381.227C275.445 380.19 277.173 378.611 278.829 377.256C283.78 378.309 302.553 382.286 306.44 380.534C307.141 380.218 307.064 379.947 307.298 379.358C304.272 375.726 286.741 377.102 281.971 373.371L282.56 372.665C284.765 372.199 287.039 372.825 289.221 373.209C297.502 374.666 307.841 377.31 316.134 375.319L316.641 374.023L317.32 374.657L316.726 375.09L316.415 373.89C309.588 370.961 294.78 371.043 286.487 368.733C285.403 368.43 285.352 368.498 284.829 367.59C289.013 364.724 310.479 372.889 317.008 370.318C317.374 369.328 317.171 369.39 316.711 368.491C310.479 363.997 296.251 365.077 288.366 362.904C287.18 362.577 286.622 362.362 286.012 361.408L286.618 360.774C293.996 360.454 301.262 363.432 308.483 363.462C310.505 363.47 312.291 362.72 313.685 361.538C313.818 361.046 313.952 361.006 313.639 360.563C311.46 357.487 292.011 355.892 287.188 354.741L286.247 354.51Z" fill="#8EB2B3"></path>
<path d="M239.97 574.531C236.986 581.939 232.452 590.107 231.084 597.81C229.864 604.675 231.389 617.242 231.644 624.65C232.14 639.087 236.265 756.239 239.113 759.509C241.95 759.946 244.848 760.227 247.703 760.58C246.603 754.41 246.523 748.012 246.125 741.777C245.347 729.204 244.721 716.626 244.245 704.043C242.461 660.878 242.086 617.69 239.97 574.531Z" fill="#8EB2B3"></path>
<path d="M212.898 250.186C213.828 254.794 215.574 259.381 216.644 264.002C220.546 266.602 223.696 272.042 226.352 275.615C245.14 300.891 261.502 328.319 272.974 356.63C276.169 355.37 279.433 354.215 282.664 353.018C283.824 352.644 285.281 352.226 286.028 351.354C287.068 350.14 286.527 347.247 286.251 345.891C284.801 338.782 280.027 331.632 276.559 325.1C265.153 303.612 251.01 280.113 231.382 263.153C225.683 258.228 219.512 254.157 212.898 250.186Z" fill="#8EB2B3"></path>
<path d="M199.265 264.942C197.342 265.944 195.667 267.431 193.981 268.707C215.289 295.996 240.786 334.058 249.481 365.986C253.384 364.711 257.106 363.271 260.846 361.686L270.296 357.445C261.185 334.544 247.811 311.621 233.703 290.655C230.274 285.56 226.603 280.523 222.881 275.577C220.794 272.803 218.409 270.187 216.792 267.182C216.708 267.027 216.63 266.869 216.55 266.713L216.278 267.097L216.041 266.049C215.675 266.693 215.448 267.275 214.732 267.702C213.466 268.455 201.653 265.343 199.265 264.942Z" fill="#8EB2B3"></path>
<path d="M181.059 440.847L180.275 440.837C179.1 442.587 176.852 471.642 176.349 476.067C174.579 491.649 171.782 507.019 169.096 522.494C166.705 536.273 164.543 550.108 161.392 563.781C155.638 588.746 142.902 604.959 132.35 627.868C122.501 649.25 114.172 670.978 105.603 692.738C100.452 705.815 94.7448 718.788 90.1328 732.009C91.4996 732.795 92.7442 733.643 94.1958 734.324C95.676 733.746 95.9126 732.871 96.6911 731.682C112.286 706.076 121.461 677.904 132.571 650.771C138.28 636.83 144.085 622.997 150.872 609.401C155.224 600.682 161.08 592.012 164.327 582.999C169.492 568.663 172.092 553.296 175.141 538.534C181.475 506.92 187.019 475.207 191.772 443.395C188.157 442.644 184.614 441.783 181.059 440.847Z" fill="#8EB2B3"></path>
<path d="M363.625 240.737C360.779 242.55 358.213 245.684 355.799 247.952C351.618 251.845 347.334 255.655 342.949 259.383C319.671 279.043 291.881 287.336 260.337 292.631C264.914 299.557 269.368 306.539 273.7 313.578C275.928 317.263 277.869 321.079 279.884 324.85C279.964 324.726 280.045 324.603 280.124 324.478C280.717 323.537 281.289 322.564 281.986 321.674C286.622 315.746 311.707 314.271 320.413 312.511C321.87 310.273 323.271 307.854 325.008 305.765C326.357 304.142 327.883 302.925 330.014 302.084C336.682 299.452 355.373 298.058 363.595 296.966C363.996 278.245 363.648 259.462 363.625 240.737Z" fill="#E8ECE4"></path>
<path d="M185.47 161.16C179.936 161.012 174.403 162.356 169.303 164.056C173.368 167.358 175.964 170.136 177.625 174.777C175.993 180.275 173.435 185.985 169.464 190.584C169.345 190.723 169.22 190.858 169.098 190.994L169.746 191.282C170.757 190.835 171.588 190.473 172.721 190.309C173.809 190.152 173.651 190.14 174.389 189.54L173.974 188.261C174.399 187.392 174.517 187.103 175.502 186.58C176.903 185.838 178.369 185.847 179.919 186.133C180.928 186.855 181.21 187.007 181.653 188.044L180.534 189.336C181.072 189.828 181.552 190.324 182.024 190.863L181.473 191.488C179.887 191.872 178.821 191.905 177.178 191.755L176.647 191.702C175.72 192.427 176.565 194.03 175.911 195.241C173.904 195.524 171.49 194.676 169.525 194.282C166.934 193.763 163.131 193.064 160.822 194.59C159.415 195.52 159.219 197.051 159.248 198.448C159.304 201.137 160.549 203.431 162.873 205.262C165.642 207.443 169.648 208.776 173.44 208.553C175.676 208.422 176.538 207.941 177.951 206.517C178.486 205.978 178.095 206.2 179.084 205.998C180.221 206.831 180.587 207.322 181.132 208.465C180.881 209.328 180.954 209.591 179.994 210.051C176.108 211.918 170.068 210.862 166.081 209.923C166.443 217.75 168.261 238.894 164.675 245.264C169.34 248.964 175.66 251.532 181.477 253.641C185.42 254.614 189.524 255.896 193.649 256.106C195.051 256.178 197.265 256.152 198.315 255.241C202.979 251.197 198.878 229.143 198.544 223.061C196.833 223.241 195.113 223.434 193.392 223.544C191.683 223.653 188.998 223.699 187.679 222.731C192.197 220.242 213.557 218.936 220.914 217.18C223.48 216.568 225.905 215.858 227.273 213.802C227.775 209.398 220.908 195.671 218.859 190.559C217.03 192.041 215.208 193.752 212.736 194.404C211.344 194.771 209.14 195.396 207.76 194.801L207.665 194.441C208.917 192.245 212.099 191.574 214.505 190.616C217.38 189.471 218.653 186.863 219.654 184.465L219.886 183.896C216.769 183.804 212.645 184.677 209.721 183.87C204.306 182.377 196.378 165.088 185.47 161.16Z" fill="#8EB2B3"></path>
<path d="M166.604 197.375L165.909 198.039C165.966 198.592 165.938 198.682 166.199 199.269C167.118 201.329 170.168 202.935 172.493 203.581C173.331 202.854 173.749 202.752 173.943 201.718C172.039 200.073 169.283 199.287 167.127 197.753L166.604 197.375Z" fill="black"></path>
<path d="M176.771 165.136C176.15 165.229 175.82 165.409 175.281 165.673L175.333 166.527C176.853 168.27 178.979 169.63 181.127 170.785C184.022 172.342 185.905 173.545 189.426 172.85C190.373 171.982 190.917 171.332 191.505 170.262L191.137 169.615C189.21 169.438 187.835 170.003 186.069 170.603L176.771 165.136Z" fill="black"></path>
<path d="M196.078 179.469C195.482 179.464 194.745 179.423 194.151 179.527C192.538 179.81 190.846 180.765 190.126 182.073C189.452 183.298 189.373 184.554 189.968 185.807C190.668 187.285 192.123 187.798 193.713 188.389C195.022 188.397 196.63 188.513 197.879 188.149C199.015 187.817 200.018 186.92 200.521 186.016C201.108 184.961 201.07 183.929 200.568 182.867C199.682 180.989 198.161 180.272 196.078 179.469Z" fill="black"></path>
<path d="M260.69 386.744C253.764 387.719 247.146 389.243 240.45 390.987C240.745 392.893 240.821 394.818 240.943 396.736C235.001 398.278 228.079 398.751 221.919 399.416C206.492 401.082 191.289 402.319 175.734 402.527C174.97 406.484 173.734 410.436 172.326 414.261C171.138 417.485 164.823 429.049 165.881 431.602C170.997 435.482 178.979 437.625 185.415 439.339C205.961 444.838 235.01 444.818 256.438 442.964C257.348 432.712 256.76 422.121 256.72 411.835C252.952 412.23 248.082 413.216 244.348 412.698C243.076 412.521 242.597 412.332 241.822 411.477C241.654 409.926 242.144 408.763 242.991 407.407C246.376 401.985 256.088 392.243 260.69 386.744Z" fill="#8EB2B3"></path>
<path d="M178.429 152.558C174.499 153.005 169.681 150.518 165.513 150.487C160.783 150.452 156.816 152.496 152.26 153.017C150.866 153.176 150.458 152.843 149.415 152.118C142.838 151.78 135.207 153.719 130.187 157.446C129.603 157.88 128.946 158.35 128.532 158.911C128.57 160.829 125.312 166.162 123.53 167.395C123.063 167.718 122.99 167.704 122.499 167.844L121.926 167.368C114.773 172.755 110.092 178.845 109.535 187.146C109.397 189.199 109.451 191.266 109.49 193.321L110.22 192.277L110.806 192.575C111.902 196.923 112.312 200.583 114.546 204.728C115.952 207.338 118.359 210.205 119.345 212.902C119.652 213.738 119.512 214.251 119.036 214.988C123.364 220.276 131.29 224.798 138.549 226.557C141.467 225.223 158.86 228.485 163.682 228.969C163.795 222.293 163.649 215.601 163.617 208.923C160.06 206.11 157.109 203.261 156.695 198.908C156.51 196.96 156.998 195.013 158.582 193.539C160.829 191.45 163.512 191.206 166.665 191.116C170.234 185.925 173.424 180.701 175.417 174.915C172.011 167.762 167.305 166.992 165.469 163.848C168.085 159.936 177.471 160.903 181.121 157.975C181.71 156.784 181.746 156.523 181.588 155.236L182.118 154.834C180.919 153.988 179.775 153.23 178.429 152.558Z" fill="#1D2237"></path>
<path d="M191.98 270.083C189.59 272.374 185.356 278.184 181.956 278.834C174.347 278.004 161.056 266.976 155.596 262.282C154.151 262.906 153.911 262.972 153.103 264.145C156.876 269.279 160.744 274.322 163.78 279.817C176.729 303.254 179.732 331.578 176.373 357.074C196.753 359.664 216.769 362.173 237.428 362.268L237.664 367.447C240.584 367.278 243.485 366.869 246.382 366.52C239.83 337.503 210.878 295.177 191.98 270.083Z" fill="#8EB2B3"></path>
<path d="M386.538 304.98C369.191 306.573 351.963 310.143 334.796 312.769C318.679 315.234 301.442 316.632 285.8 320.709C283.84 323.016 282.351 325.322 280.879 327.871C286.191 338.396 287.899 340.934 288.858 352.506C296.079 353.911 304.128 354.954 311.026 357.179C313.282 357.908 314.902 358.654 315.946 360.549C316.087 361.647 315.947 362.147 315.389 363.164C315.339 363.256 314.852 364.077 314.829 364.222C314.687 365.141 319.306 367.696 320.052 369.323C320.651 370.627 320.558 371.903 319.801 373.147C317.941 376.207 314.04 377.468 310.458 378.557C309.549 379.95 308.854 381.246 307.316 382.201C300.014 383.749 286.954 380.916 279.435 379.601C274.167 383.563 271.474 385.361 264.322 385.839C263.143 386.976 262.155 388.25 261.132 389.489C256.974 394.41 250.686 400.053 248.36 405.755C248.319 405.854 247.998 406.707 247.92 406.835C247.112 408.16 245.606 408.425 244.093 408.998L244.128 409.846C248.177 411.117 314.03 403.363 320.427 401.039C321.626 400.603 322.242 399.661 322.921 398.76C325.54 395.284 327.573 391.326 329.909 387.686C334.469 380.701 339.1 373.749 343.8 366.83C349.769 358.08 355.688 349.18 361.851 340.535C367.332 332.847 372.947 325.372 378.129 317.524C380.908 313.315 384.557 309.549 386.538 304.98Z" fill="#1D2237"></path>
<path d="M933.912 64.6561C930.828 64.3294 927.522 64.4569 924.405 64.4034L924.474 316.055L924.506 414.495C924.533 431.923 923.75 449.646 924.686 467.04C925.678 467.91 926.585 467.832 927.947 468.053C931.788 468.727 935.224 467.687 938.965 466.935C939.502 455.89 939.172 444.737 939.178 433.681L939.159 374.995L939.215 197.327L939.247 102.403L939.238 78.1902C939.238 74.0916 939.748 69.4408 938.849 65.4271C937.503 64.6303 935.519 64.7371 933.912 64.6561Z" fill="#FEFEFE"></path>
<path d="M370.979 181.989C364.893 185.796 351.201 201.131 345.05 206.937C332.031 219.223 317.703 230.044 302.2 239.99C304.132 242.192 310.155 244.679 310.708 246.328L310.089 247.144L309.134 247.22L309.709 247.337C308.952 247.507 309.205 247.51 308.329 247.417C304.974 247.061 301.898 243.562 299.997 241.399C274.804 249.93 246.515 251.115 219.705 250.945C229.918 257.693 238.499 265.273 246.294 274.023C250.783 279.328 254.983 284.793 258.894 290.418C269.933 288.256 281.035 286.059 291.785 283.001C331.389 271.735 351.508 249.832 375.242 222.642C381.43 215.553 390.714 205.832 395.222 198.154C387.708 192.114 378.822 187.679 370.979 181.989Z" fill="#FEFEFE"></path>
<path d="M145.363 260.341C144.164 260.689 143.541 261.37 142.786 262.196C140.061 265.169 138.214 268.816 136.501 272.263C125.387 294.642 124.426 323.566 127.575 347.542C129.424 361.622 134.986 384.779 149.002 393.932C166.404 405.295 215.15 397.838 235.928 395.264L236.598 395.145C237.709 393.756 235.912 387.417 235.599 385.298C234.578 378.414 234.337 371.572 234.611 364.641C225.308 364.737 215.832 363.906 206.585 363.087C200.796 362.573 173.671 358.472 170.498 359.255C170.296 359.305 170.099 359.367 169.9 359.422C165.729 360.555 162.525 363.21 158.434 364.378L157.492 363.929L157.533 363.103C161.985 358.779 167.051 357.49 173.467 356.727C174.373 351.592 174.559 346.252 174.653 341.063C175.076 317.431 170.124 293.051 155.738 272.519C152.747 268.251 149.451 263.918 145.363 260.341Z" fill="#FEFEFE"></path>
<path d="M235.646 761.917C234.232 747.822 233.695 733.595 232.924 719.461L229.267 642.946C228.709 630.214 229.293 615.824 227.874 603.336C221.193 615.577 215.477 628.094 208.326 640.183C201.295 652.071 136.667 751.562 131.939 752.758C129.407 753.399 124.183 751.06 121.694 750.215C121.528 755.152 122.073 759.105 124.506 763.67C125.955 765.889 127.535 768.099 128.861 770.371C132.464 774.7 136.318 778.861 140.422 782.856C144.527 786.85 148.861 790.657 153.424 794.277C184.086 793.079 214.968 791.951 245.644 793.59L246.165 791.769C245.84 788.044 246.846 782.488 247.777 778.786C248.238 773.452 248.861 768.257 248.684 762.897C244.344 762.903 239.957 762.326 235.646 761.917Z" fill="#DADAF1"></path>
<path d="M921.102 63.9931C911.271 62.9583 901.139 62.7688 891.24 62.2085C873.614 61.2252 855.999 60.1211 838.395 58.8962C764.194 53.7548 689.959 49.0109 615.689 44.6646L460.837 35.0975C440.045 33.5841 419.239 32.2096 398.421 30.9741C387.598 30.3107 376.72 29.4351 365.873 29.2169C365.427 43.948 365.694 58.7425 365.665 73.4802L366.096 182.558C371.809 177.626 376.572 172.345 381.807 167.087C382.129 159.223 381.865 151.28 381.877 143.407L381.875 80.3035C381.887 67.3539 381.479 54.2813 382.308 41.3512C392.415 41.5842 403.44 41.774 413.404 43.0897C429.411 43.7976 445.409 45.0581 461.397 46.044C477.452 47.034 493.6 47.7449 509.615 49.1019C518.513 49.1222 527.57 50.0261 536.448 50.6039L578.325 53.196L719.461 61.8852L844.811 69.8343L886.237 72.5405C893.085 73.0052 900.213 73.1669 906.994 74.0607C907.748 79.3245 907.477 84.7394 907.469 90.037L907.44 113.153L907.489 192.129L907.503 451.078C869.329 446.645 831.395 441 793.302 436.163L535.873 402.916L433.494 389.439C422.156 387.972 410.83 386.444 399.515 384.856C393.94 384.101 387.927 383.761 382.513 382.503C382.102 367.348 382.262 352.114 382.447 336.954C382.531 330.056 383.349 322.625 382.676 315.777C377.141 323.082 372.127 330.707 366.609 338.042C366.253 356.665 365.747 375.427 366.334 394.043C467.433 408.479 568.711 421.95 670.167 434.455L921.069 467.402C921.627 461.532 921.437 455.542 921.453 449.655C921.48 439.757 921.44 429.859 921.335 419.962C921.058 394.71 920.986 369.459 921.118 344.207L921.102 63.9931Z" fill="#FEFEFE"></path>
<path d="M363.586 396.037C363.491 378.027 362.671 359.642 363.997 341.678C354.778 354.316 346.172 367.388 337.685 380.392C333.306 387.104 328.241 397.102 322.405 402.712C324.353 410.922 328.983 422.974 322.978 430.549C321.58 432.314 319.594 433.745 317.739 435.158C318.632 456.18 320.116 477.154 320.634 498.197C321.057 522.47 320.912 546.742 320.198 571.01C329.181 569.345 338.738 568.683 347.852 567.496C367.807 564.898 387.634 562.128 407.291 558.155C446.966 550.134 500.198 535.635 522.57 504.39C536.179 485.383 534.357 459.788 528.092 439.068C526.016 432.204 522.855 425.52 520.924 418.674L520.745 418.021C481.012 412.481 441.191 407.424 401.533 401.474C389 399.593 375.94 398.477 363.586 396.037Z" fill="#E8ECE4"></path>
<path d="M284.802 408.503C276.439 409.288 268.101 410.237 259.789 411.349C259.79 420.434 260.079 429.623 259.703 438.698C259.632 440.395 259.784 443.729 257.983 444.776C254.782 446.633 247.978 446.212 244.177 446.296C227.285 446.671 211.405 446.07 194.71 443.86C190.141 473.328 185.051 502.731 179.44 532.069C176.17 548.967 173.168 566.724 167.275 583.093C164.015 592.151 158.347 600.747 154.053 609.51C146.85 624.206 140.51 639.098 134.311 654.112C122.838 681.898 113.392 710.033 97.0212 736.16C107.438 742.149 118.648 746.494 130.291 750.453C135.022 746.053 138.682 740.016 142.317 734.921C149.928 724.375 157.265 713.693 164.328 702.875C180.807 677.715 198.43 653.019 212.694 626.85C231.628 592.115 244.828 555.21 257.451 518.545C262.544 504.304 267.018 489.84 271.589 475.47C273.561 469.273 275.265 462.822 277.568 456.731C278.567 455.908 278.509 455.964 279.909 455.947C280.581 456.605 280.574 456.637 280.476 457.479C280.25 459.42 279.023 461.796 278.418 463.719L271.207 485.852C265.473 504.145 259.419 522.362 253.046 540.503C250.155 548.656 244.383 560.661 242.969 568.51C241.958 574.12 243.141 581.002 243.383 586.71L244.677 621.541L247.43 706.228C248.143 724.416 248.807 742.525 250.583 760.672C257.415 760.856 264.245 760.812 271.073 760.54C277.901 760.268 284.705 759.769 291.487 759.042C293.883 745.089 297.394 731.206 300.165 717.292C304.644 695.247 308.228 673.098 310.918 650.845C314.016 624.759 316.128 598.615 317.254 572.415C318.378 546.213 318.514 520.008 317.661 493.8C317.124 474.649 315.643 455.567 314.773 436.432C307.223 438.898 299.181 440.63 291.239 441.878C288.115 431.062 287.179 419.5 284.802 408.503Z" fill="#8EB2B3"></path>
<path d="M362.48 133.471C338.06 128.386 312.693 120.669 288.18 114.876C229.057 100.902 153.991 89.848 98.456 118.307C56.8949 139.605 26.0133 187.476 14.8361 226.688C12.4099 235.015 10.4373 243.419 8.91837 251.9C7.39941 260.38 6.34039 268.902 5.74121 277.465C1.56775 345.115 27.454 413.922 68.7846 471.249C86.4521 495.754 108.372 517.381 132.907 537.086C141.468 543.961 152.21 549.869 159.853 557.301C165.635 528.686 170.354 499.945 174.007 471.079C175.21 460.668 176.643 450.155 176.954 439.695C172.278 437.862 164.821 435.066 161.487 431.798C161.196 430.891 161.061 430.192 161.479 429.287C162.536 426.994 164.516 424.927 165.733 422.652C169.148 416.271 171.032 409.4 172.676 402.563C161.17 401.866 150.381 399.79 142.524 392.082C123.788 373.701 121.951 332.796 123.912 309.082C125.034 295.51 129.408 274.53 138.334 263.409C143.192 257.356 156.338 246.907 163.086 241.923C163.607 238.292 163.643 234.614 163.781 230.961C157.796 230.323 151.854 229.688 145.937 228.677C144.39 229.375 142.722 230.041 141.002 230.348C135.058 231.408 128.291 229.557 123.335 226.799C120.32 225.121 117.68 222.942 116.006 220.206C113.337 215.84 114.812 211.114 113.098 206.628C110.428 199.639 103.488 194.325 101.996 187.003C100.999 182.111 101.823 177.028 105.291 172.932C109.376 168.109 115.078 166.169 121.704 165.162C122.704 159.79 124.335 154.553 129.227 150.696C132.673 147.978 137.427 146.256 142.172 146.429C147.083 146.609 150.188 148.577 153.408 151.448C155.172 150.887 156.938 150.484 158.762 150.09L158.077 149.027L157.745 148.907L157.581 148.393C158.339 147.691 159.107 147.072 160.023 146.517C163.936 144.149 169.026 142.823 173.787 143.674C177.66 144.367 181.097 146.266 183.254 149.097C185.416 151.934 185.483 154.246 184.747 157.475C195.344 163.049 201.32 171.13 208.136 179.623C211.305 183.573 215.621 180.527 219.797 181.618C220.868 181.898 221.766 182.395 222.162 183.311C222.921 185.066 221.909 186.496 221.013 188.047C223.842 195.257 227.845 202.59 229.952 209.921C230.528 211.925 230.684 214.126 229.228 215.898C225.031 221.006 208.045 221.858 201.142 222.723C201.647 229.457 202.003 236.303 203.378 242.956C207.563 244.201 210.712 245.853 214.246 248.059C227.017 248.643 239.685 248.631 252.429 247.65C266.639 246.556 283.293 244.871 296.318 239.839C315.196 232.546 349.24 199.57 363.076 185.496C363.509 169.614 363.167 153.682 363.116 137.794C363.081 126.59 363.574 115.171 362.755 103.998C361.611 113.575 362.456 123.811 362.48 133.471Z" fill="#E8ECE4"></path>
<path d="M413.404 43.0896C403.44 41.7739 392.415 41.5841 382.308 41.3511C381.479 54.2812 381.887 67.3538 381.875 80.3033L381.877 143.407L382.565 143.014C385.147 147.853 384.483 154.53 384.577 159.775C386.003 155.664 387.483 151.948 390.023 148.212C395.578 140.04 403.24 132.759 409.726 125.103C413.045 121.186 415.484 116.676 418.903 112.836C419.814 111.813 420.978 110.612 422.363 110.033C423.559 109.532 424.208 109.668 425.444 109.953C426.771 110.944 427.73 112.314 428.007 113.823C428.759 117.917 416.184 134.445 412.876 138.801C420.409 141.605 421.08 143.305 426.257 148.14C427.214 149.034 428.692 149.786 429.335 150.87C430.513 152.857 429.283 155.869 428.196 157.674C423.108 166.125 413.059 170.962 406.303 178.116C401.726 182.962 398.867 189.284 395.347 194.717L398.317 198.074C394.42 203.375 389.751 208.203 386.11 213.643C386.014 213.789 385.904 213.928 385.806 214.073C384.038 216.69 386.056 220.793 382.862 222.711C382.327 222.217 382.518 222.548 382.53 221.753C382.541 220.989 382.45 220.304 382.32 219.552C381.566 224.584 382.031 230.004 382.049 235.08L382.141 263.311L382.029 289.446C382.009 293.819 381.538 298.611 382.223 302.925C382.396 301.524 382.317 299.458 383.279 298.32C383.941 299.807 384.256 301.316 384.607 302.874C386.265 303.32 387.793 302.673 389.275 303.39C389.831 304.673 389.376 305.82 388.709 307.011C387.921 308.419 386.768 309.835 386.152 311.29C385.345 313.195 385.671 316.4 383.97 317.814L383.508 317.611L383.42 315.6L383.024 315.352L382.676 315.777C383.349 322.624 382.531 330.056 382.447 336.954C382.262 352.114 382.102 367.348 382.513 382.503C387.927 383.761 393.94 384.101 399.515 384.856C410.83 386.444 422.156 387.972 433.494 389.439L535.873 402.916L793.302 436.163C831.395 441 869.329 446.645 907.503 451.078L907.489 192.129L907.44 113.153L907.469 90.0369C907.477 84.7393 907.748 79.3244 906.994 74.0606C900.213 73.1668 893.085 73.0051 886.237 72.5404L844.811 69.8342L719.461 61.8851L578.325 53.1959L536.448 50.6038C527.57 50.026 518.513 49.1221 509.615 49.1018C493.6 47.7448 477.452 47.0339 461.397 46.0439C445.409 45.058 429.411 43.7975 413.404 43.0896Z" fill="#1D2237"></path>
<path d="M453.705 109.611C451.465 112.87 458.215 129.621 456.907 134.299L456.359 134.08C456.137 133.114 455.963 132.211 455.88 131.229C455.693 129.048 454.932 126.882 454.498 124.726C453.63 120.33 452.839 115.925 452.126 111.509C451.356 115.566 456.409 142.134 458.61 144.79C459.459 145.815 460.356 146.429 461.749 146.86C463.354 146.705 464.223 146.4 465.292 145.335C468.332 142.304 469.781 137.283 469.832 133.372C467.377 136.672 467.152 141.54 463.516 144.111C462.829 144.173 462.434 144.358 461.834 143.983C457.847 141.491 454.811 115.231 453.705 109.611Z" fill="#0E101C"></path>
<path d="M509.615 49.102C493.6 47.745 477.452 47.0341 461.397 46.044C445.409 45.0582 429.411 43.7977 413.404 43.0897C415.274 44.0109 416.903 44.7651 419.057 45.0934C433.011 47.22 447.217 46.9585 461.28 47.7698C475.585 48.5951 490.851 51.4667 505.136 50.0529L500.653 49.8169C503.606 49.5814 506.795 49.8148 509.615 49.102Z" fill="#0E101C"></path>
<path d="M472.658 127.76C479.934 128.158 489.078 130.655 496.077 129.948C497.647 129.789 498.383 129.397 499.372 128.381L499.238 127.451C496.545 124.378 461.995 102.562 457.5 101.013C455.99 100.494 455.801 100.763 454.39 101.33C452.247 103.504 453.497 106.989 453.704 109.611C454.811 115.231 457.847 141.491 461.834 143.983C462.434 144.358 462.829 144.173 463.516 144.111C467.152 141.54 467.377 136.672 469.832 133.372C469.84 133.006 470.143 132.287 470.258 131.923L470.929 131.643C493.502 157.04 517.822 181.356 541.177 206.234L592.606 198.065C601.051 206.769 608.97 215.874 617.084 224.802C623.987 232.396 631.11 239.845 637.931 247.493C657.577 247.78 677.216 248.284 696.846 249.006C703.292 253.072 709.024 259.123 714.748 263.958C730.399 277.377 746.3 290.578 762.453 303.562C769.295 309.137 776.013 315.324 783.231 320.518C784.258 321.256 785.082 321.648 786.388 321.907L787.153 321.486C787.157 320.955 787.194 320.957 786.997 320.362C786.518 318.922 784.272 317.217 783.057 316.159C765.489 300.855 746.644 286.415 728.583 271.51C723.133 267.043 717.729 262.539 712.369 257.996C707.799 254.106 703.111 249.436 697.669 246.441C678.386 245.577 659.003 245.829 639.751 244.662C623.871 228.415 609.959 210.763 593.251 195.105C576.169 197.899 559.027 200.366 541.963 203.256C536.86 196.895 530.806 191.031 525.144 185.025L499.691 157.93C490.215 147.959 480.93 138.507 472.658 127.76Z" fill="#FEFEFE"></path>
<path d="M549.834 81.4515C548.47 81.3434 547.087 81.2117 545.718 81.1846C543.871 81.1482 542.149 81.3663 540.859 82.6222C539.652 83.797 539.561 85.4093 539.39 86.888C538.16 97.5083 538.423 108.577 537.928 119.251C537.067 137.763 535.822 156.394 535.54 174.911C545.239 175.991 555.108 176.474 564.855 177.223L617.795 181.473C620.805 181.772 625.088 182.618 627.964 181.783C629.116 179.227 632.491 90.6417 631.481 87.1941C624.654 84.9978 610.112 85.0898 602.138 84.6064C584.71 83.5515 567.24 82.7124 549.834 81.4515Z" fill="#FEFEFE"></path>
<path d="M548.48 84.3162C546.76 84.1782 545.387 84.0603 543.71 84.4617C543.399 84.7419 542.998 84.966 542.776 85.3014C541.522 87.2008 539.675 163.652 539.21 172.39C548.689 173.57 558.539 173.928 568.103 174.673L618.524 178.753C620.89 179.001 623.297 179.089 625.676 179.236C626.357 149.13 627.337 119.031 628.617 88.9388L548.48 84.3162Z" fill="#1D2237"></path>
<path d="M582.366 153.734C580.819 153.648 580.212 153.519 578.784 154.088L578.549 154.817C578.651 154.936 578.737 155.068 578.857 155.176C581.003 157.104 602.995 157.689 607.599 158.136L610.578 158.217C611.54 157.618 611.485 157.529 611.803 156.538L611.34 155.95C602.052 154.362 591.834 154.388 582.366 153.734Z" fill="#FEFEFE"></path>
<path d="M561.148 130.354L560.38 130.804C560.196 131.855 560.056 131.885 560.755 132.744C565.807 133.769 571.806 133.65 577.024 133.975L610.388 136.022C610.938 135.382 611.134 135.06 611.209 134.266C609.249 132.841 566.52 130.691 561.148 130.354Z" fill="#FEFEFE"></path>
<path d="M562.226 107.314C560.611 107.138 558.806 106.83 557.275 107.444C556.255 107.852 556.201 107.781 555.838 108.727C556.616 109.314 557.434 109.553 558.44 109.725C561.931 110.321 565.971 110.227 569.556 110.476C581.347 111.298 593.175 111.759 604.972 112.525C607.807 112.673 609.52 112.832 612.074 111.687L611.919 111.734L611.503 110.642C606.109 109.488 599.87 109.572 594.303 109.239L562.226 107.314Z" fill="#FEFEFE"></path>
<path d="M666.477 87.7311C664.436 87.5814 662.387 87.415 660.34 87.3389C657.971 87.2502 656.487 87.4543 654.706 88.8143C652.307 93.37 653.002 172.781 652.92 184.254C722.4 189.007 791.802 195.556 861.204 201.119C865.325 201.471 869.453 201.74 873.59 201.924C874.261 197.342 874.027 192.579 874.042 187.965L874.09 165.219C874.125 143.703 874.709 122.038 873.789 100.542C804.713 95.9435 735.609 91.6732 666.477 87.7311Z" fill="#FEFEFE"></path>
<path d="M663.861 90.5882C661.674 90.3273 659.316 90.436 657.102 90.4009C656.329 101.447 656.802 112.729 656.732 123.803C656.468 143.013 656.343 162.225 656.357 181.437C674.827 182.293 693.473 184.484 711.899 186.012L797.075 192.993C818.833 194.837 840.627 196.956 862.427 198.379C865.158 198.656 867.892 198.917 870.627 199.16L870.633 103.374C863.192 102.543 855.53 102.287 848.042 101.791C832.371 100.743 816.694 99.7691 801.01 98.8675L663.861 90.5882Z" fill="#1D2237"></path>
<path d="M785.507 168.368C783.146 168.174 779.649 167.56 777.625 168.689L777.561 169.647C779.52 171.539 787.252 171.269 790.229 171.471C792.443 171.591 796.191 172.195 797.94 171.076L798.045 169.676C794.869 168.327 789.052 168.567 785.507 168.368Z" fill="#FEFEFE"></path>
<path d="M828.511 170.949C826.019 170.781 822.713 170.204 820.341 170.892C819.723 171.701 819.699 171.416 819.939 172.489C824.126 174.215 837.449 174.229 842.718 174.547C845.031 174.717 849.253 175.483 851.127 174.386L851.217 173.237C849.29 171.46 832.61 171.314 828.511 170.949Z" fill="#FEFEFE"></path>
<path d="M826.439 145.856C824.697 145.698 821.969 145.225 820.352 145.834C819.666 146.092 819.765 146.472 819.586 147.026L820.184 147.707C829.145 149.42 838.997 149.611 848.138 150.299C849.58 150.457 851.249 150.792 852.666 150.449C853.432 150.263 853.501 149.834 853.876 149.296L853.639 148.661C848.976 146.631 832.464 146.344 826.439 145.856Z" fill="#FEFEFE"></path>
<path d="M681.851 111.09C680.784 110.903 680.311 110.889 679.288 111.22C678.813 112.222 678.822 112.18 679.252 113.198C681.189 114.506 719.442 116.558 725.531 116.986C726.238 117.066 727.07 116.992 727.776 116.98L728.614 116.117L728.42 115.392C725.52 113.435 687.993 111.55 681.851 111.09Z" fill="#FEFEFE"></path>
<path d="M678.298 161.712L677.313 161.918C676.939 162.912 676.865 162.94 677.297 163.905C678.538 164.569 679.662 164.733 681.11 164.897C689.087 165.803 697.626 165.841 705.694 166.367C720.947 167.36 736.277 168.608 751.565 169.088L752.61 168.883C753.193 167.985 753.009 167.89 752.887 166.914C751.05 165.857 687.292 162.254 678.298 161.712Z" fill="#FEFEFE"></path>
<path d="M758.412 116.514C756.061 116.291 754.57 116.009 752.594 117.254L752.659 118.059C753.751 118.848 754.89 119.129 756.296 119.28C765.941 120.311 775.986 120.537 785.702 121.194L847.617 125.362C848.691 125.468 850.194 125.731 851.276 125.632C852.589 125.512 852.86 125.082 853.593 124.278L853.278 123.549C849.443 122.035 769.763 117.28 758.412 116.514Z" fill="#FEFEFE"></path>
<path d="M684.522 135.821C682.983 135.665 681.239 135.443 679.695 135.542C678.571 135.614 677.647 136.056 676.951 136.794L677.386 137.489C678.886 138.096 680.262 138.408 681.903 138.632C692.719 140.111 705.274 140.29 716.365 141.058C741.311 142.812 766.266 144.452 791.232 145.979C793.03 146.097 795.012 146.337 796.806 146.237C797.944 146.174 798.692 145.714 799.379 144.967L799.113 144.416C792.509 142.231 761.386 141.269 752.428 140.689C729.801 139.226 707.093 137.78 684.522 135.821Z" fill="#FEFEFE"></path>
<path d="M437.932 159.761C436.684 159.744 435.708 159.805 434.475 160.046C433.95 160.951 434.24 161.55 434.73 162.437C435.654 164.106 437.265 165.576 438.073 167.284C439.614 170.539 438.638 183.249 438.625 187.391L438.637 358.674C430.916 358.14 421.456 355.581 413.993 356.224C412.969 356.844 412.405 357.139 412.205 358.303C412.074 359.07 412.383 359.783 412.867 360.408C413.827 361.648 416.792 362.059 418.44 362.301C424.831 363.237 431.349 363.729 437.769 364.528L501.342 372.047C536.961 376.265 572.613 380.276 608.297 384.081L857.482 412.554C857.344 416.646 855.919 426.31 858.348 429.715C859.044 430.692 859.605 430.854 860.858 431.12C861.723 430.96 862.435 430.839 863.115 430.31C866.685 427.535 865.197 417.572 865.115 413.503C872.215 413.976 883.045 416.481 889.724 415.252C890.426 414.738 890.894 414.391 891.183 413.606C891.532 412.657 891.392 411.676 890.715 410.853C888.822 408.553 869.543 407.478 865.291 407.039C864.877 396.845 865.165 386.612 865.26 376.413C869.383 376.539 880.676 378.093 883.897 377.342C884.67 377.162 884.447 377.168 884.8 376.485L884.063 375.628C879.977 373.949 870.358 374.016 865.492 373.618C865.413 365.622 865.402 357.627 865.458 349.631C870.606 349.659 879.415 351.595 884.004 350.464C884.76 350.278 884.715 349.963 885.032 349.41L884.681 348.609C878.766 347.267 871.456 347.231 865.317 346.945C865.115 336.537 865.298 326.1 865.299 315.689C871.176 315.911 877.104 316.813 882.975 316.886C884.423 316.904 884.932 316.981 885.976 316.146C881.92 313.075 870.735 313.54 865.277 312.822L865.255 291.407L865.24 284.375C870.517 284.464 879.557 286.585 884.319 284.568L884.543 283.834C881.228 281.912 870.331 281.886 865.876 281.134L865.159 281.01L865.33 254.321C868.863 254.389 882.146 255.973 884.238 254.474L884.043 253.74C879.736 251.458 870.798 251.668 865.738 251.239C865.683 247.798 865.859 244.182 865.389 240.771C865.081 238.537 864.421 236.675 862.293 235.256C861.185 235.137 860.745 235.108 859.823 235.807C858.063 237.141 857.53 239.702 857.35 241.587C856.99 245.375 857.441 249.457 857.425 253.283L857.269 282.751L857.366 390.144C843.163 377 828.011 363.633 811.959 352.107C797.78 355.563 784.059 360.203 769.911 363.697C762.204 356.023 755.317 347.288 748.243 339.16C738.041 327.412 727.64 315.792 717.041 304.301C708.294 294.653 699.561 284.722 689.868 275.738C673.159 286.191 657.226 297.531 640.35 307.832L591.413 252.874C581.742 242.113 571.615 229.836 560.019 220.619C545.756 225.221 531.952 231.272 517.79 236.192C511.266 230.621 505.342 224.434 499.241 218.527C487.026 206.68 474.887 194.776 462.824 182.817C454.917 175.019 446.924 166.658 437.932 159.761Z" fill="#FEFEFE"></path>
<path d="M689.164 283.547C685.447 285.573 681.989 288.32 678.476 290.617C673.079 294.145 667.492 297.471 662.258 301.173C661.912 328.804 662.852 356.474 662.093 384.095C668.697 384.896 675.308 385.655 681.926 386.374C689.056 387.37 696.311 387.991 703.48 388.775C703.867 368.842 703.605 348.872 703.718 328.934C703.76 321.353 703.268 313.517 703.78 305.972C703.859 304.812 703.907 304.149 704.849 303.292L706.781 303.509C701.657 296.516 694.877 290.24 689.164 283.547Z" fill="#1D2237"></path>
<path d="M443.225 173.095C442.129 178.093 442.919 184.177 442.933 189.294L442.978 222.561L442.908 359.208C453.604 360.81 464.567 361.738 475.344 362.934C476.333 359.232 475.649 354.067 475.644 350.237L475.624 323.933L475.56 204.835C466.005 193.979 454.279 182.945 443.225 173.095Z" fill="#1D2237"></path>
<path d="M707.541 304C706.484 307.998 707.241 322.408 707.23 327.265C707.181 347.912 707.04 368.587 707.368 389.231C713.042 390.209 718.96 390.685 724.701 391.372L758.159 395.283C758.321 386.323 757.364 376.854 758.438 367.969C758.593 366.695 758.644 365.422 759.829 364.579C760.835 365.449 761.433 366.54 761.716 367.732C762.37 370.49 761.893 373.777 761.877 376.601L761.787 395.555C777.554 397.263 793.311 399.039 809.057 400.885C809.052 394.673 808.152 365.226 809.487 361.939C809.867 361.003 810.104 360.955 811.094 360.625L811.85 361.154C814.174 365.977 812.887 378.11 812.833 383.767L812.73 401.299C827.591 402.519 842.365 404.945 857.244 406.263L857.267 397.467C841.514 384.91 825.683 372.09 810.931 358.698C796.56 361.933 781.769 366.61 767.569 370.568C758.88 363.166 751.905 353.566 744.658 345.092C733.302 331.812 719.933 316.406 707.541 304Z" fill="#1D2237"></path>
<path d="M569.823 239.198C569.288 255.384 569.84 271.731 569.81 287.938C569.642 316.283 569.73 344.628 570.075 372.972C582.976 375.279 596.553 376.424 609.611 378.115C609.666 366.747 608.682 291.222 610.348 287.206C611.289 287.238 611.047 287.08 611.668 287.631C612.712 288.555 613.376 289.622 613.579 290.895C614.311 295.503 613.608 300.91 613.631 305.615L613.828 340.59L613.9 378.407C628.646 380.593 643.631 382.081 658.472 383.752C657.522 357.291 658.589 330.68 658.352 304.196C651.432 307.515 645.62 312.397 638.666 315.798C632.131 309.771 626.545 302.647 620.663 296.138C603.577 277.23 587.526 257.715 569.823 239.198Z" fill="#1D2237"></path>
<path d="M480.063 209.125C478.571 210.633 479.41 348.775 479.122 363.492C491.102 364.914 503.17 365.75 515.137 367.312L515.276 287.195C515.276 274.553 514.561 261.494 515.198 248.897C515.257 247.741 515.366 246.469 515.934 245.401C516.35 244.616 516.117 244.893 517.154 244.513L518.001 244.992C518.647 246.15 518.847 247.17 518.956 248.447C519.414 253.766 518.818 259.42 518.824 264.778L518.858 303.894L518.842 367.529C534.629 369.246 550.373 371.406 566.193 372.882L566.303 236.209L566.559 236.323L566.579 236.474C564.204 233.351 561.805 230.384 558.774 227.688C549.329 230.218 523.407 242.727 516.484 242.273C514.58 242.148 512.959 241.329 511.541 240.286C507.305 237.172 503.603 232.596 499.983 228.932C493.39 222.295 486.75 215.693 480.063 209.125Z" fill="#1D2237"></path>
</g>
<defs>
<clipPath id="clip0_217_787">
<rect width="949.556" height="839" fill="white" transform="matrix(-1 0 0 1 950 0.5)"></rect>
</clipPath>
</defs>
</svg>