<svg width="41" height="36" viewBox="0 0 41 36" fill="none" xmlns="http://www.w3.org/2000/svg">
<g clip-path="url(#clip0_324_7)">
<path d="M20.1112 36C31.1595 36 40.1112 27.9435 40.1112 18C40.1112 8.0565 31.1595 0 20.1112 0C9.06287 0 0.111206 8.0565 0.111206 18C0.111206 27.9435 9.06287 36 20.1112 36ZM9.26287 17.61L28.5462 10.9185C29.4412 10.6275 30.2229 11.115 29.9329 12.333L29.9345 12.3315L26.6512 26.253C26.4079 27.24 25.7562 27.48 24.8445 27.015L19.8445 23.6985L17.4329 25.7895C17.1662 26.0295 16.9412 26.232 16.4245 26.232L16.7795 21.6525L26.0462 14.118C26.4495 13.7985 25.9562 13.6185 25.4245 13.9365L13.9729 20.4255L9.03621 19.0395C7.96454 18.7335 7.94121 18.075 9.26287 17.61Z" fill="white"/>
</g>
<defs>
<clipPath id="clip0_324_7">
<rect width="40" height="36" fill="white" transform="translate(0.111206)"/>
</clipPath>
</defs>
</svg>
