<svg width="40" height="36" viewBox="0 0 40 36" fill="none" xmlns="http://www.w3.org/2000/svg">
<g clip-path="url(#clip0_324_2)">
<path d="M20 0C8.95468 0 0 8.05884 0 18C0 27.9412 8.95468 36 20 36C31.0453 36 40 27.9412 40 18C40 8.05884 31.0453 0 20 0ZM30.1451 19.9468C31.0772 20.7662 32.0634 21.5374 32.9003 22.4415C33.271 22.8415 33.6205 23.2551 33.8864 23.7202C34.2662 24.3835 33.9233 25.1109 33.2636 25.1503L29.1662 25.1495C28.108 25.2284 27.2659 24.8442 26.5559 24.1931C25.9892 23.6742 25.4633 23.1199 24.9174 22.5833C24.6944 22.3631 24.4595 22.1557 24.1796 21.9926C23.6211 21.6656 23.1358 21.7657 22.8158 22.2909C22.4896 22.8253 22.4151 23.4175 22.384 24.0123C22.3394 24.8818 22.0481 25.109 21.0787 25.1499C19.0073 25.2372 17.0418 24.9544 15.2151 24.0145C13.6037 23.1855 12.3564 22.0154 11.2696 20.6907C9.15315 18.1083 7.53228 15.2739 6.07591 12.3582C5.74813 11.7016 5.98793 11.3502 6.79284 11.3366C8.13013 11.3134 9.46742 11.3163 10.8047 11.3355C11.349 11.3432 11.7091 11.6235 11.9182 12.0857C12.6408 13.6859 13.5268 15.2084 14.6369 16.6204C14.9328 16.9964 15.2348 17.3713 15.6649 17.6369C16.1395 17.93 16.5013 17.8332 16.7251 17.3562C16.8683 17.0531 16.9301 16.729 16.9612 16.4042C17.0676 15.2916 17.0803 14.1794 16.8962 13.0712C16.7816 12.3777 16.3482 11.9299 15.5802 11.7988C15.189 11.7321 15.2462 11.6018 15.4365 11.4007C15.7668 11.053 16.0761 10.8379 16.6944 10.8379L21.3238 10.8372C22.0534 10.9661 22.2171 11.2607 22.3161 11.9222L22.3202 16.5523C22.3116 16.8082 22.463 17.5669 22.9737 17.7345C23.3829 17.856 23.653 17.5606 23.8977 17.3275C25.0079 16.2672 25.7989 15.0158 26.5072 13.7205C26.8198 13.1493 27.0895 12.5582 27.3514 11.966C27.5462 11.5281 27.849 11.3127 28.3982 11.32L32.8561 11.3248C32.9874 11.3248 33.1208 11.3259 33.2509 11.3462C34.0023 11.4618 34.2081 11.7528 33.9757 12.4124C33.6098 13.4487 32.899 14.312 32.2042 15.1775C31.4594 16.1041 30.6652 16.9983 29.9278 17.9289C29.2501 18.7797 29.3037 19.208 30.1451 19.9468Z" fill="white"/>
</g>
<defs>
<clipPath id="clip0_324_2">
<rect width="40" height="36" fill="white"/>
</clipPath>
</defs>
</svg>
